<?xml version="1.0" encoding="utf-8"?>
<!-- Generator: Adobe Illustrator 22.1.0, SVG Export Plug-In . SVG Version: 6.00 Build 0)  -->
<svg version="1.1" id="Layer_1" xmlns="http://www.w3.org/2000/svg" xmlns:xlink="http://www.w3.org/1999/xlink" x="0px" y="0px"
	 viewBox="0 0 728 216" style="enable-background:new 0 0 728 216;" xml:space="preserve">
<style type="text/css">
	.st0{fill:#A80030;}
	.st1{fill:#DD4814;}
	.st2{fill:#FFFFFF;}
	.st3{fill:#020001;}
	.st4{fill:#E03127;}
	.st5{fill:#072B61;}
	.st6{fill:#0A57A4;}
	.st7{fill:#262577;}
	.st8{fill:#932279;}
	.st9{fill:#EFA724;}
	.st10{fill:#9CCD2A;}
	.st11{fill:#FCE94F;}
	.st12{fill:#202525;}
	.st13{fill:#89A19C;}
	.st14{fill:none;stroke:#E1E7E6;stroke-miterlimit:10;}
</style>
<path class="st0" d="M90.2,130.2c0.2,0,0.5,0.1,0.5,0.1C90.9,130.3,91,130.3,90.2,130.2"/>
<polyline class="st0" points="90.7,130.4 90.5,130.4 90.6,130.4 90.7,130.4 "/>
<path class="st0" d="M90.3,130c0.3-0.1,0.8-0.1,1.1-0.1c-0.4,0-0.8,0.1-1.3,0.1H90.3"/>
<g>
	<circle class="st1" cx="230.1" cy="156.9" r="4.9"/>
	<path class="st2" d="M227.1,156.3c-0.3,0-0.6,0.3-0.6,0.6s0.3,0.6,0.6,0.6c0.3,0,0.6-0.3,0.6-0.6
		C227.7,156.5,227.4,156.3,227.1,156.3z M231.3,159c-0.3,0.2-0.4,0.5-0.2,0.8c0.2,0.3,0.5,0.4,0.8,0.2s0.4-0.5,0.2-0.8
		C232,158.9,231.6,158.8,231.3,159z M228.4,156.9c0-0.6,0.3-1.1,0.7-1.4l-0.4-0.7c-0.5,0.3-0.9,0.9-1.1,1.5c0.2,0.2,0.3,0.4,0.3,0.6
		c0,0.3-0.1,0.5-0.3,0.6c0.2,0.6,0.5,1.2,1.1,1.5l0.4-0.7C228.6,158,228.4,157.4,228.4,156.9z M230.1,155.1c0.9,0,1.6,0.7,1.7,1.6
		h0.8c0-0.7-0.3-1.2-0.8-1.7c-0.2,0.1-0.5,0.1-0.7-0.1c-0.2-0.1-0.4-0.3-0.4-0.6c-0.2-0.1-0.5-0.1-0.7-0.1c-0.4,0-0.8,0.1-1.1,0.3
		l0.4,0.7C229.6,155.2,229.8,155.1,230.1,155.1z M230.1,158.6c-0.3,0-0.5-0.1-0.7-0.2l-0.4,0.7c0.3,0.2,0.7,0.3,1.1,0.3
		c0.2,0,0.5,0,0.7-0.1c0-0.2,0.2-0.5,0.4-0.6c0.2-0.1,0.5-0.1,0.7-0.1c0.4-0.4,0.7-1,0.8-1.7h-0.8
		C231.7,157.9,231,158.6,230.1,158.6z M231.3,154.8c0.3,0.2,0.6,0.1,0.8-0.2c0.2-0.3,0.1-0.6-0.2-0.8c-0.3-0.2-0.6-0.1-0.8,0.2
		C230.9,154.2,231,154.6,231.3,154.8z"/>
	<path d="M162.4,169.8c-0.5,0.1-1.2,0.3-2,0.4c-0.8,0.1-1.8,0.2-2.9,0.2c-0.9,0-1.7-0.1-2.4-0.4c-0.6-0.3-1.2-0.7-1.6-1.2
		c-0.4-0.5-0.7-1.1-0.8-1.8c-0.2-0.7-0.3-1.4-0.3-2.3v-6.9h2.2v6.4c0,1.5,0.2,2.6,0.7,3.2c0.5,0.6,1.3,1,2.4,1c0.2,0,0.5,0,0.7,0
		c0.3,0,0.5,0,0.7-0.1c0.2,0,0.4,0,0.6-0.1c0.2,0,0.3-0.1,0.4-0.1v-10.2h2.2L162.4,169.8L162.4,169.8z"/>
	<path d="M167.8,158.5c0.3-0.2,0.7-0.4,1.2-0.5c0.5-0.1,1.2-0.3,1.9-0.3c0.9,0,1.7,0.2,2.3,0.5c0.7,0.3,1.3,0.8,1.7,1.3
		c0.5,0.6,0.8,1.2,1.1,2c0.2,0.8,0.4,1.6,0.4,2.6s-0.1,1.9-0.4,2.7c-0.3,0.8-0.7,1.5-1.2,2s-1.2,1-1.9,1.3c-0.8,0.3-1.6,0.4-2.5,0.4
		c-1,0-1.9-0.1-2.7-0.2c-0.8-0.1-1.4-0.3-1.9-0.4v-17.6l2.2-0.4L167.8,158.5L167.8,158.5z M167.8,168.3c0.2,0.1,0.5,0.1,0.9,0.2
		c0.4,0.1,0.9,0.1,1.5,0.1c1.2,0,2.1-0.4,2.8-1.2s1.1-1.9,1.1-3.3c0-0.6-0.1-1.2-0.2-1.8c-0.1-0.5-0.3-1-0.6-1.4
		c-0.3-0.4-0.6-0.7-1.1-0.9c-0.4-0.2-1-0.3-1.6-0.3s-1.1,0.1-1.6,0.3s-0.9,0.4-1.2,0.6L167.8,168.3L167.8,168.3z"/>
	<path d="M188.6,169.8c-0.5,0.1-1.2,0.3-2,0.4c-0.8,0.1-1.8,0.2-2.9,0.2c-0.9,0-1.7-0.1-2.4-0.4c-0.6-0.3-1.2-0.7-1.6-1.2
		c-0.4-0.5-0.7-1.1-0.8-1.8c-0.2-0.7-0.3-1.4-0.3-2.3v-6.9h2.2v6.4c0,1.5,0.2,2.6,0.7,3.2c0.5,0.6,1.3,1,2.4,1c0.2,0,0.5,0,0.7,0
		c0.3,0,0.5,0,0.7-0.1c0.2,0,0.4,0,0.6-0.1c0.2,0,0.3-0.1,0.4-0.1v-10.2h2.2L188.6,169.8L188.6,169.8z"/>
	<path d="M191.7,158.3c0.5-0.1,1.2-0.3,2-0.4c0.8-0.1,1.8-0.2,2.9-0.2c1,0,1.8,0.1,2.4,0.4s1.2,0.7,1.5,1.2c0.4,0.5,0.7,1.1,0.8,1.8
		c0.2,0.7,0.2,1.5,0.2,2.3v6.9h-2.2v-6.4c0-0.8-0.1-1.4-0.2-1.9s-0.3-1-0.5-1.3s-0.5-0.6-0.9-0.7c-0.4-0.1-0.9-0.2-1.5-0.2
		c-0.2,0-0.5,0-0.7,0c-0.3,0-0.5,0-0.7,0.1c-0.2,0-0.4,0.1-0.6,0.1s-0.3,0.1-0.4,0.1v10.3h-2.2v-12.1H191.7z"/>
	<path d="M206.6,157.9h4.6v1.8h-4.6v5.6c0,0.6,0,1.1,0.1,1.5c0.1,0.4,0.2,0.7,0.4,0.9c0.2,0.2,0.4,0.4,0.7,0.5
		c0.3,0.1,0.6,0.1,1,0.1c0.7,0,1.2-0.1,1.6-0.2c0.4-0.1,0.7-0.3,0.8-0.3l0.5,1.8c-0.2,0.1-0.6,0.3-1.2,0.4c-0.6,0.2-1.2,0.3-1.9,0.3
		c-0.8,0-1.5-0.1-2.1-0.3c-0.5-0.2-1-0.5-1.3-1c-0.3-0.4-0.6-0.9-0.7-1.6c-0.1-0.6-0.2-1.3-0.2-2.2v-10.7l2.2-0.4L206.6,157.9
		L206.6,157.9z"/>
	<path d="M223.2,169.8c-0.5,0.1-1.2,0.3-2,0.4c-0.8,0.1-1.8,0.2-2.9,0.2c-0.9,0-1.7-0.1-2.4-0.4c-0.6-0.3-1.2-0.7-1.6-1.2
		s-0.7-1.1-0.8-1.8c-0.2-0.7-0.3-1.4-0.3-2.3v-6.9h2.2v6.4c0,1.5,0.2,2.6,0.7,3.2c0.5,0.6,1.3,1,2.4,1c0.2,0,0.5,0,0.7,0
		c0.3,0,0.5,0,0.7-0.1c0.2,0,0.4,0,0.6-0.1c0.2,0,0.3-0.1,0.4-0.1v-10.2h2.2L223.2,169.8L223.2,169.8z"/>
	<path class="st3" d="M312.9,169.2c-0.7-0.2-1.5-0.3-2.3-0.3c-1.3,0-2.6,0.2-3.5,0.6c-0.1,0-0.2,0.2-0.2,0.3v0.1
		c0.1,0.3-0.1,0.6-0.9,0.8c-1.3,0.3-2.1,1.6-2.6,2.1s-2.1,0.8-1.9,0.5c0.2-0.2,0.9-1,1.3-1.8c0.4-0.7,0.7-0.9,1.2-1.6
		c0.1-0.2,0.7-0.9,0.8-1.5c0.2-0.6,0.1-1.2,0.2-1.5c0.1-0.4,0.5-1.3,0.5-1.8c0-0.3-1.2,0.4-1.8,0.4s-1.1-0.3-1.6-0.4
		c-0.6,0-1,0.5-1.6,0.4c-0.3-0.1-0.6-0.3-1.2-0.4c-0.8,0-1.8,0.5-3.7,0.4c-1.8-0.1-3.5-2.3-3.8-2.7s-0.6-0.4-1-0.1s-0.8,0.1-0.9-0.1
		c-0.2-0.4-0.9-1.7-1.9-1.9c-1.4-0.4-2.1,0.8-2,1.7s0.7,1.2,1,1.6c0.3,0.5,0.4,0.8,0.9,1c0.4,0.2,0.5,0.4,0.4,0.7
		c-0.1,0.3-0.5,0.3-0.7,0.3c-0.5,0-0.9-0.1-1.2-0.3c-0.3-0.2-0.6-0.5-0.8-0.9c-0.3-0.5-0.8-0.7-1.4-0.7c-0.3,0-0.5,0.1-0.8,0.2
		c-0.9,0.5-2,0.8-3.2,0.8h-1.3c-0.6-1.9-1-3.9-1-6.1c0-10.5,8.5-18.9,18.9-18.9c10.5,0,18.9,8.5,18.9,18.9
		C315.9,162.7,314.8,166.2,312.9,169.2z"/>
	<path class="st3" d="M301.1,167.4c0.1,0.1,0.3,0.4,0.1,0.8c-0.1,0.2-0.2,0.4-0.5,0.5c-0.3,0.2-0.8,0.5-1.5,0
		c-0.4-0.2-0.4-0.3-0.9-0.3c-0.4,0-0.5-0.3-0.4-0.7c0.1-0.3,0.7-0.6,1.4-0.2c0.3,0.2,0.8,0.6,1.2,0.2
		C300.7,167.8,300.8,167.7,301.1,167.4L301.1,167.4L301.1,167.4z"/>
	<path class="st4" d="M307.6,153.9c-0.2,0.6-0.5,1.4-1.6,2c-0.2,0.1-0.2-0.1-0.2-0.2c0.4-0.8,0.5-1,0.7-1.3c0.2-0.4,0.3-1.1-0.1-2.4
		c-0.7-2.6-2.2-6-3.3-7.1c-1-1.1-2.9-1.4-4.6-0.9c-0.6,0.2-1.9,0.8-4.1,0.3c-3.9-0.9-4.5,1.1-4.8,1.9c-0.2,0.9-0.8,3.3-0.8,3.3
		c-0.2,1-0.4,2.7,5.7,3.9c2.9,0.5,3,1.3,3.1,1.8c0.2,1,0.6,1.5,1,1.8s0,0.5-0.5,0.5c-1.2,0.1-5.7-1.2-8.4-2.7
		c-2.2-1.3-2.2-2.5-1.7-3.5c-3.3-0.4-5.7,0.3-6.2,1.9c-0.8,2.7,5.9,7.2,13.4,9.5c7.9,2.4,16.1,0.7,17-4.3
		C312.8,156.3,310.9,154.6,307.6,153.9z"/>
	<path class="st3" d="M315.2,168.4h0.1l0.2,0.3h0.1l-0.2-0.3c0.1,0,0.2-0.1,0.2-0.2c0-0.1-0.1-0.2-0.3-0.2H315v0.7h0.1L315.2,168.4
		L315.2,168.4z M315.2,168.3v-0.2h0.2c0.1,0,0.2,0,0.2,0.1c0,0.1-0.1,0.1-0.2,0.1H315.2z"/>
	<path class="st3" d="M316,168.3c0,0.4-0.3,0.7-0.7,0.7c-0.4,0-0.7-0.3-0.7-0.7c0-0.4,0.3-0.7,0.7-0.7
		C315.7,167.6,316,167.9,316,168.3z M315.3,167.7c-0.3,0-0.6,0.3-0.6,0.6c0,0.3,0.3,0.6,0.6,0.6c0.3,0,0.6-0.3,0.6-0.6
		C315.9,168,315.6,167.7,315.3,167.7z"/>
	<path class="st3" d="M295.5,149c-2.2,0.2-2.4,0.4-2.8,0.8c-0.6,0.6-1.3-0.8-1.3-0.8c-0.5-0.1-1-0.8-0.7-1.5s0.8-0.5,1-0.3
		c0.2,0.3,0.6,0.7,1.2,0.7s1.2-0.1,2.2-0.1c0.9,0,1.6,0.3,1.6,0.6C296.6,148.7,296.5,148.9,295.5,149z"/>
	<path class="st3" d="M297.8,145.4L297.8,145.4L297.8,145.4L297.8,145.4c0.4-0.3,1.1-0.5,1.8-0.6c0.2,0,0.4,0,0.6,0h0.1
		c1.2,0,2.2,0.5,2.2,1.1c0,0.6-1,1-2.2,1c-0.4,0-0.8-0.1-1.1-0.2l-0.1-0.1l0.1-0.1c0.8-0.2,1.3-0.5,1.2-0.7c0-0.4-1-0.6-2.2-0.4
		C298,145.3,297.9,145.4,297.8,145.4z"/>
	<path class="st3" d="M325.8,160.8c0-1.7,0-3-0.1-4.1h2.8l0.1,2.4h0.1c0.6-1.8,2.1-2.7,3.5-2.7c0.3,0,0.5,0,0.8,0.1v3
		c-0.3-0.1-0.6-0.1-1-0.1c-1.5,0-2.6,1-2.9,2.4c-0.1,0.3-0.1,0.6-0.1,1v6.7h-3.2L325.8,160.8z"/>
	<path class="st3" d="M336.8,164c0.1,2.3,1.9,3.3,3.9,3.3c1.5,0,2.5-0.2,3.5-0.6l0.5,2.2c-1.1,0.5-2.6,0.8-4.4,0.8
		c-4.1,0-6.5-2.5-6.5-6.4c0-3.5,2.1-6.8,6.2-6.8s5.5,3.4,5.5,6.2c0,0.6-0.1,1.1-0.1,1.4L336.8,164z M342.4,161.7
		c0-1.2-0.5-3.1-2.6-3.1c-2,0-2.8,1.8-2.9,3.1H342.4z"/>
	<path class="st3" d="M382.9,166.5c0,1,0,2,0.2,3H382l-0.2-1.8h-0.1c-0.6,1-2,2.1-4,2.1c-2.5,0-3.7-1.8-3.7-3.4
		c0-2.9,2.5-4.6,7.6-4.6v-0.3c0-1.2-0.2-3.7-3.2-3.7c-1.1,0-2.2,0.3-3.1,0.9l-0.4-0.9c1.1-0.8,2.5-1.1,3.7-1.1
		c3.6,0,4.3,2.7,4.3,4.9L382.9,166.5L382.9,166.5z M381.7,162.8c-2.7-0.1-6.3,0.3-6.3,3.3c0,1.8,1.2,2.6,2.5,2.6
		c2.1,0,3.3-1.3,3.7-2.5c0.1-0.3,0.1-0.5,0.1-0.8L381.7,162.8L381.7,162.8z"/>
	<path class="st3" d="M388,154.2v2.8h3.6v1H388v8.1c0,1.6,0.5,2.6,1.8,2.6c0.6,0,1.1-0.1,1.4-0.2l0.2,1c-0.4,0.2-1,0.3-1.7,0.3
		c-0.9,0-1.7-0.3-2.2-0.9c-0.6-0.7-0.8-1.7-0.8-3V158h-2.1v-1h2.1v-2.3L388,154.2z"/>
	<path class="st3" d="M367.6,156.7c-1,0-1.8,0.3-2.5,0.7c-0.7,0.4-1.4,1.1-1.7,1.8h-0.1V153l-1.2-0.3v16.8h1.2v-7.7
		c0-0.5,0-0.9,0.2-1.2c0.5-1.6,2-2.8,3.8-2.8c2.6,0,3.4,2.1,3.4,4.3v7.4h1.2V162C372,157.2,368.8,156.7,367.6,156.7z"/>
	<path class="st3" d="M359.2,151.9L356,151v7.1h-0.1c-0.6-0.9-1.8-1.7-3.6-1.7c-3.1,0-5.7,2.5-5.7,6.8c0,3.9,2.4,6.5,5.4,6.5
		c1.8,0,3.4-0.9,4.1-2.3h0.1l0.1,2h2.9c-0.1-0.9-0.1-2.3-0.1-3.6v-13.9H359.2z M356,164c0,0.3,0,0.7-0.1,0.9
		c-0.3,1.4-1.5,2.3-2.8,2.3c-2,0-3.2-1.7-3.2-4c0-2.4,1.1-4.2,3.2-4.2c1.4,0,2.5,1,2.8,2.3c0.1,0.3,0.1,0.6,0.1,0.8V164z"/>
	<path class="st3" d="M393.3,168.9h0.2l0.2,0.4h0.1l-0.2-0.4c0.1,0,0.2-0.1,0.2-0.2c0-0.2-0.1-0.2-0.3-0.2h-0.3v0.9h0.1L393.3,168.9
		L393.3,168.9z M393.3,168.8v-0.3h0.2c0.1,0,0.2,0,0.2,0.1c0,0.1-0.1,0.1-0.2,0.1L393.3,168.8L393.3,168.8z"/>
	<path class="st3" d="M394.3,168.8c0,0.5-0.4,0.9-0.9,0.9s-0.9-0.4-0.9-0.9s0.4-0.9,0.9-0.9C393.9,168,394.3,168.4,394.3,168.8z
		 M393.5,168.1c-0.4,0-0.7,0.3-0.7,0.7c0,0.4,0.3,0.7,0.7,0.7c0.4,0,0.7-0.3,0.7-0.7C394.2,168.5,393.8,168.1,393.5,168.1z"/>
	<path class="st5" d="M663.5,148.7c0-4.2-3.4-7.6-7.6-7.6c-4.2,0-7.6,3.4-7.6,7.6l0,0v5.8l0,0c0,0.9,0.8,1.7,1.7,1.7l0,0l0,0h5.8
		C660.1,156.2,663.5,152.8,663.5,148.7"/>
	<path class="st6" d="M658.2,142.9c-2,0-3.5,1.6-3.5,3.5v1.9h-1.9c-2,0-3.5,1.6-3.5,3.5c0,2,1.6,3.5,3.5,3.5c2,0,3.5-1.6,3.5-3.5
		v-1.9h1.9c2,0,3.5-1.6,3.5-3.5C661.7,144.5,660.1,142.9,658.2,142.9z M658.2,144.6c1,0,1.9,0.8,1.9,1.9c0,1-0.8,1.9-1.9,1.9l0,0
		h-1.6c-0.1,0-0.3-0.1-0.3-0.3v-1.6C656.3,145.4,657.1,144.6,658.2,144.6z M609.5,149.3c-0.7,0-1.4,0.6-1.4,1.3v7.1
		c-0.7-1.3-2.2-2.1-3.9-2.1c-3.6,0-6,2.7-6,6.3s2.5,6.3,6,6.3c1.6,0,2.9-0.6,3.7-1.8l0.3,0.8c0.2,0.5,0.7,0.9,1.3,0.9
		c0.7,0,1.3-0.6,1.3-1.3l0,0v-16.2C610.8,149.9,610.2,149.3,609.5,149.3z M582,149.4c-2.8,0-5.1,2.3-5.1,5.1v1.6h-1.7
		c-0.6,0-1.1,0.5-1.1,1.1c0,0.6,0.5,1.2,1.1,1.2h1.7v8.5c0,0.7,0.6,1.4,1.4,1.4c0.7,0,1.4-0.6,1.4-1.4v-8.5h1.8
		c0.6,0,1.1-0.6,1.1-1.2c0-0.6-0.5-1.1-1.1-1.1h-1.8v-1.6c0-1.3,1.1-2.5,2.4-2.5c0.1,0,0.2,0,0.4,0c0.7,0.1,1.4-0.2,1.5-1
		c0.1-0.7-0.4-1.4-1.1-1.5C582.5,149.4,582.2,149.4,582,149.4z M652.7,150h1.6c0.1,0,0.3,0.1,0.3,0.3v1.6c0,1-0.8,1.9-1.9,1.9
		c-1,0-1.9-0.8-1.9-1.9C650.9,150.8,651.7,150,652.7,150z M661.4,154.4L661.4,154.4l0.1,0.1v0.4h0.1v-0.4h0.1v-0.1H661.4z
		 M661.8,154.4v0.5h0.1v-0.3l0,0l0,0l0.1,0.3l0.1-0.3v-0.1v0.1v0.3h0.1v-0.5h-0.1l-0.1,0.3v0.1v-0.1L661.8,154.4L661.8,154.4z
		 M589.9,155.6c-3.5,0-6.2,2.8-6.2,6.3s2.8,6.3,6.3,6.3c1.9,0,3.9-0.8,5-2.1c0.2-0.2,0.4-0.6,0.4-0.9c0-0.2-0.1-0.4-0.2-0.6
		c-0.2-0.3-0.6-0.4-0.9-0.4c-0.2,0-0.5,0.1-0.7,0.2c-1,0.9-2.2,1.5-3.6,1.5c-2,0-3.5-1.4-3.6-3.2c8.5,0,8.5,0,8.5,0
		c0.5,0,1-0.4,1-0.9C596,158.3,593.4,155.6,589.9,155.6z M619.3,155.6c-3.5,0-6.3,2.8-6.3,6.3s2.8,6.3,6.3,6.3s6.3-2.8,6.3-6.3
		C625.6,158.5,622.8,155.6,619.3,155.6z M634.7,155.6c-1.8,0-3.1,0.6-4.2,1.9l-0.1-0.6c-0.1-0.7-0.6-1.2-1.3-1.2s-1.4,0.6-1.4,1.4
		l0,0v9.7c0,0.7,0.6,1.4,1.4,1.4c0.7,0,1.4-0.6,1.4-1.4v-5.2c0-2.4,2.1-3.6,4.2-3.6c0.7,0,1.2-0.5,1.2-1.2
		C635.9,156.2,635.4,155.6,634.7,155.6z M642.7,155.6c-3.5,0-6.3,2.8-6.3,6.3s2.8,6.3,6.1,6.3c1.7,0,3.2-0.9,3.8-1.8l0.3,0.8
		c0.2,0.5,0.6,0.8,1.2,0.8c0.7,0,1.2-0.6,1.2-1.2v-3.2v-1.7C649,158.6,646.6,155.6,642.7,155.6z M589.9,157.9c1.8,0,3.1,1.3,3.4,3
		c0,0-2.6,0-6.8,0C586.8,159.1,588,157.9,589.9,157.9z M604.5,158c2.2,0,3.6,1.7,3.6,3.9s-1.4,3.9-3.6,3.9c-2.2,0-3.6-1.8-3.6-3.9
		C600.9,159.8,602.3,158,604.5,158z M619.3,158c2.2,0,3.6,1.8,3.6,3.9c0,2.1-1.4,3.9-3.6,3.9c-2.2,0-3.6-1.8-3.6-3.9
		C615.7,159.8,617.1,158,619.3,158z M642.7,158c2.2,0,3.6,1.8,3.6,3.9c0,2.1-1.4,3.9-3.6,3.9c-2.2,0-3.6-1.8-3.6-3.9
		C639,159.8,640.5,158,642.7,158z M649.3,166.4L649.3,166.4l0.1,0.1v0.4h0.1v-0.4h0.1v-0.1H649.3z M649.8,166.4v0.5h0.1v-0.3v-0.1
		l0,0l0.1,0.3l0.1-0.3l0,0v0.1v0.3h0.1v-0.5h-0.1l-0.1,0.3v0.1v-0.1L649.8,166.4L649.8,166.4z"/>
	<path class="st2" d="M654.6,148.3v-1.8l0,0c0-2,1.6-3.5,3.5-3.5c0.3,0,0.5,0,0.8,0.1c0.4,0.1,0.7,0.4,0.7,0.8
		c0,0.5-0.3,0.8-0.8,0.8c-0.2,0-0.3,0-0.7,0c-1,0-1.9,0.8-1.9,1.9v1.6l0,0c0,0.1,0.1,0.3,0.3,0.3l0,0h1.2c0.5,0,0.8,0.4,0.8,0.8
		c0,0.5-0.4,0.8-0.8,0.8h-1.5v1.9l0,0c0,2-1.6,3.5-3.5,3.5c-0.3,0-0.5,0-0.8-0.1c-0.4-0.1-0.7-0.4-0.7-0.8c0-0.5,0.3-0.8,0.8-0.8
		c0.2,0,0.3,0,0.7,0c1,0,1.9-0.8,1.9-1.9v-1.6c0-0.1-0.1-0.3-0.3-0.3l0,0h-1.2c-0.5,0-0.8-0.4-0.8-0.8c0-0.5,0.4-0.8,0.8-0.8
		L654.6,148.3"/>
	<path class="st0" d="M91.9,154.4c-0.5,0,0.1,0.2,0.7,0.3c0.2-0.1,0.3-0.3,0.4-0.4C92.6,154.4,92.3,154.4,91.9,154.4"/>
	<path class="st0" d="M94.3,153.8c0.3-0.4,0.5-0.8,0.5-1.2c-0.1,0.3-0.2,0.6-0.4,0.8c-0.9,0.5-0.1-0.3,0-0.6
		C93.6,153.9,94.4,153.5,94.3,153.8"/>
	<path class="st0" d="M95.2,151.4c0.1-0.8-0.2-0.6-0.2-0.2C95.1,151.2,95.2,151.8,95.2,151.4"/>
	<path class="st0" d="M98.2,151.8c0,0.7-0.2,1.1-0.4,1.7l-0.4,0.2c-0.3,0.6,0,0.4-0.2,0.9c-0.5,0.4-1.5,1.4-1.9,1.5
		c-0.2,0,0.2-0.3,0.2-0.4c-0.7,0.5-0.5,0.7-1.6,1v-0.1c-2.5,1.2-6.1-1.2-6-4.4c0,0.2-0.1,0.2-0.1,0.2c-0.1-1.7,0.8-3.3,2.3-4
		c1.5-0.7,3.2-0.4,4.3,0.6c-0.6-0.8-1.7-1.6-3.1-1.5c-1.3,0-2.6,0.9-3,1.8c-0.7,0.4-0.8,1.7-1.1,1.9c-0.4,3,0.8,4.3,2.7,5.8
		c0.3,0.2,0.1,0.2,0.1,0.4c-0.7-0.3-1.3-0.8-1.7-1.3c0.3,0.4,0.5,0.8,0.9,1c-0.6-0.2-1.4-1.5-1.7-1.5c1.1,1.9,4.3,3.3,6,2.6
		c-0.8,0-1.8,0-2.7-0.3c-0.4-0.2-0.9-0.6-0.8-0.7c2.3,0.9,4.7,0.7,6.7-1c0.5-0.4,1.1-1.1,1.2-1.1c-0.2,0.4,0,0.2-0.1,0.5
		c0.5-0.8-0.2-0.3,0.5-1.4l0.3,0.4c-0.1-0.7,0.8-1.5,0.8-2.6c0.2-0.3,0.2,0.4,0,1.1c0.3-0.8,0.1-1,0.2-1.7c0.1,0.2,0.2,0.5,0.3,0.7
		c-0.2-0.8,0.2-1.4,0.3-1.8c-0.1,0-0.3,0.4-0.4-0.6c0-0.4,0.1-0.2,0.2-0.3c-0.1,0-0.3-0.4-0.4-1c0.1-0.1,0.3,0.4,0.4,0.4
		c-0.1-0.5-0.2-0.9-0.2-1.2c-0.4-0.8-0.1,0.1-0.4-0.3c-0.4-1.3,0.3-0.3,0.4-0.9c0.6,0.9,1,2.3,1.1,2.8c-0.1-0.7-0.3-1.4-0.6-2
		c0.2,0.1-0.3-1.4,0.2-0.4c-0.6-2.1-2.5-4.1-4.2-5c0.2,0.2,0.5,0.4,0.4,0.5c-0.9-0.5-0.7-0.6-0.8-0.8c-0.7-0.3-0.7,0-1.2,0
		c-1.3-0.7-1.6-0.6-2.8-1.1l0.1,0.3c-0.9-0.3-1,0.1-2,0c-0.1,0,0.3-0.2,0.6-0.2c-0.8,0.1-0.8-0.2-1.6,0c0.2-0.1,0.4-0.2,0.6-0.4
		c-0.7,0-1.7,0.4-1.4,0.1c-1.1,0.5-3.1,1.2-4.3,2.3v-0.2c-0.5,0.6-2.2,1.8-2.4,2.7h-0.1c-0.3,0.5-0.4,1-0.7,1.4
		c-0.4,0.6-0.5,0.2-0.5,0.3c-0.7,1.4-1,2.6-1.3,3.5c0.2,0.3,0,1.9,0.1,3.2c-0.3,6.3,4.4,12.3,9.6,13.7c0.8,0.3,1.9,0.3,2.8,0.3
		c-1.1-0.3-1.3-0.2-2.4-0.6c-0.8-0.4-1-0.8-1.5-1.3l0.2,0.4c-1.1-0.4-0.6-0.5-1.5-0.8l0.2-0.3c-0.4,0-0.9-0.6-1.1-0.9h-0.4
		c-0.5-0.6-0.7-1-0.7-1.3l-0.1,0.2c-0.1-0.2-1.7-2.2-0.9-1.7c-0.2-0.1-0.4-0.2-0.6-0.6l0.2-0.2c-0.4-0.5-0.7-1.2-0.7-1.4
		c0.2,0.3,0.4,0.3,0.5,0.4c-1-2.5-1.1-0.1-1.8-2.5H81c-0.1-0.2-0.2-0.4-0.3-0.6l0.1-0.7c-0.7-0.8-0.2-3.5-0.1-5
		c0.1-0.6,0.6-1.2,1-2.3h-0.2c0.5-0.8,2.7-3.3,3.7-3.2c0.5-0.6-0.1,0-0.2-0.2c1.1-1.1,1.4-0.8,2.2-1c0.8-0.5-0.7,0.2-0.3-0.2
		c1.4-0.4,1-0.8,2.8-1c0.2,0.1-0.4,0.2-0.6,0.3c1.1-0.6,3.6-0.4,5.2,0.3c1.9,0.9,4,3.4,4,5.9h0.1c0,1,0.1,2.1-0.2,3.1L98.2,151.8"/>
	<path class="st0" d="M86.9,155l-0.1,0.3c0.3,0.4,0.5,0.8,0.9,1.2C87.5,156,87.3,155.8,86.9,155"/>
	<path class="st0" d="M87.6,155c-0.2-0.2-0.3-0.4-0.4-0.6c0.1,0.4,0.3,0.7,0.5,1L87.6,155"/>
	<path class="st0" d="M100.2,152.3l-0.1,0.2c-0.1,0.9-0.4,1.7-0.8,2.5C99.7,154.1,100,153.2,100.2,152.3"/>
	<path class="st0" d="M79.4,145.8c0.1,0.7-0.5,0.9,0.1,0.5C79.9,145.5,79.4,146,79.4,145.8"/>
	<path class="st0" d="M78.7,148.8c0.1-0.4,0.2-0.7,0.2-1C78.5,148.4,78.8,148.5,78.7,148.8"/>
	<path d="M77.4,178.1c0,0,0,2.3,0,2.9c0,0.5-0.1,1.5-1.1,1.5s-1.3-1.2-1.4-1.7c-0.1-0.6-0.1-1.1-0.1-1.3c0-0.7,0-2.6,1.6-2.6
		c0.5,0,0.7,0.1,1,0.3V178.1z M73.3,179.8c0,4,2.1,4,2.4,4c0.9,0,1.4-0.5,1.7-1.3v1.3c0.3,0,0.5,0,1,0c0.2,0,0.3,0,0.4,0
		c0.1,0,0.2,0,0.4,0c-0.2-0.5-0.4-1.5-0.4-3.7c0-2.1,0-5.8,0.2-6.9c-0.5,0.2-0.9,0.4-1.9,0.5c0.4,0.4,0.4,0.6,0.4,2.5
		c-0.3-0.1-0.6-0.2-1.2-0.2C73.7,176,73.3,178.2,73.3,179.8"/>
	<path d="M81,179.1c0-1.2,0.3-2.2,1.3-2.2c1.1,0,1.2,1.2,1.2,2.2H81z M84.8,179.2c0-1.7-0.3-3.3-2.4-3.3c-2.9,0-2.9,3.2-2.9,3.9
		c0,2.9,1.3,4,3.4,4c1,0,1.4-0.1,1.7-0.2c0-0.5,0.1-0.8,0.1-1.3c-0.3,0.2-0.7,0.4-1.5,0.4c-2.2,0-2.2-2-2.2-2.7h3.8L84.8,179.2"/>
	<path d="M89.4,179.8c0,1.3-0.2,3.1-1.9,3.1c-0.2,0-0.5,0-0.7-0.1c0-0.5,0-1.4,0-2.4c0-1.2,0.1-1.8,0.2-2.2c0.3-1,1-1,1.1-1
		C89.2,177.2,89.4,178.7,89.4,179.8z M85.3,181.4c0,1,0,1.6-0.2,2.1c0.6,0.2,1.3,0.4,2.2,0.4c0.6,0,2.1,0,3-1.8
		c0.4-0.8,0.6-1.9,0.6-2.8c0-0.5-0.1-1.6-0.5-2.3c-0.4-0.7-1-1-1.7-1c-1.4,0-1.8,1.1-2,1.7c0-0.7,0-3.2,0.1-4.5
		c-0.9,0.4-1.5,0.5-2.1,0.6c0.6,0.2,0.6,1.2,0.6,4.2L85.3,181.4"/>
	<path d="M93.6,183.7c-0.3,0-0.5-0.1-0.9-0.1c-0.5,0-0.8,0-1.1,0.1c0.1-0.3,0.2-0.4,0.2-1.3c0.1-1.3,0.1-4.6,0-5.3
		c-0.1-0.5-0.2-0.6-0.4-0.8c1.2-0.1,1.5-0.2,2-0.5c-0.1,0.6-0.1,0.9-0.1,1.9C93.3,182.6,93.3,183.1,93.6,183.7"/>
	<path d="M98.1,179.7c0,0.9,0,1.5-0.3,2c-0.3,0.6-0.8,0.8-1.2,0.8c-0.8,0-1-0.7-1-1.4c0-1.3,1.2-1.4,1.7-1.4H98.1z M94.2,181.5
		c0,0.9,0.3,1.8,1.1,2.2c0.4,0.2,0.7,0.2,0.8,0.2c1.3,0,1.7-1,2-1.6c0,0.6,0,1,0,1.5c0.3,0,0.5,0,0.9,0c0.2,0,0.5,0,0.7,0
		c-0.2-0.2-0.2-0.4-0.3-0.9c0-0.5,0-1.1,0-1.8v-2.9c0-1.1-0.3-2.1-2.4-2.1c-1.4,0-2.2,0.4-2.6,0.6c0.2,0.3,0.3,0.6,0.4,1.2
		c0.6-0.5,1.3-0.7,2-0.7c1.2,0,1.2,0.8,1.2,1.9c-0.3,0-0.5,0-0.9,0C95.4,178.9,94.2,179.6,94.2,181.5"/>
	<path d="M106.2,182.3c0,0.5,0,1,0.2,1.4c-0.3,0-0.5-0.1-1.1-0.1c-0.3,0-0.5,0-0.8,0.1c0.1-0.2,0.1-0.3,0.1-0.5
		c0-0.3,0.1-1.4,0.1-1.8v-1.5c0-0.7,0-1.6,0-2c0-0.2-0.1-0.9-0.9-0.9c-0.8,0-1.1,0.6-1.2,1.1c-0.1,0.5-0.1,1-0.1,3.1
		c0,1.8,0,2,0.2,2.5c-0.2,0-0.5-0.1-1-0.1c-0.3,0-0.6,0-0.8,0.1c0.1-0.2,0.2-0.3,0.2-1.1s0.1-4.6,0-5.5c-0.1-0.6-0.2-0.7-0.4-0.8
		c1.1-0.1,1.5-0.2,1.9-0.4v1.5c0.2-0.4,0.5-1.4,1.9-1.4c1.8,0,1.8,1.3,1.8,2.1L106.2,182.3"/>
	<polyline class="st0" points="93.7,173.9 92.5,175 91.4,173.9 92.5,172.7 93.7,173.9 	"/>
	<path class="st7" d="M472.9,167.4H467c-0.6,0-1.2-0.1-1.8-0.2c-1.1-0.3-2-1.1-2.7-2.4c-0.6-1.1-0.9-2.4-0.9-3.9
		c0-1.4,0.3-2.7,0.8-3.8c0.6-1.2,1.4-2.1,2.5-2.5c0.8-0.3,1.7-0.5,2.6-0.5h5.4v2.6h-5.6c-0.9,0-1.6,0.5-2,1.5
		c-0.3,0.8-0.5,1.8-0.5,3c0,1,0.2,1.9,0.6,2.7c0.5,0.9,1.1,1.3,2,1.3h5.5V167.4L472.9,167.4z"/>
	<path class="st7" d="M483,167.5h-4.7c-1.1,0-2.1-0.5-3-1.5c-0.8-1-1.2-2.1-1.2-3.4c0-1.4,0.5-2.6,1.4-3.6s1.9-1.5,3.1-1.5h4.4v2
		h-3.3c-0.4,0-0.8,0-1.1,0.1c-0.3,0.1-0.5,0.2-0.8,0.4c-0.4,0.4-0.7,1-0.7,1.6h5.7v2.1h-5.7c0,0.3,0,0.5,0.1,0.7s0.2,0.4,0.4,0.6
		c0.2,0.2,0.5,0.3,0.8,0.4c0.3,0.1,0.7,0.1,1.1,0.1h3.4v2C482.9,167.5,483,167.5,483,167.5z"/>
	<path class="st7" d="M494.1,167.4h-2.7v-6.5c0-0.2,0-0.3-0.1-0.4c-0.1-0.1-0.2-0.3-0.3-0.4c-0.3-0.2-0.5-0.3-0.9-0.3h-2.6v7.7h-2.6
		v-10h5.1c0.9,0,1.6,0.1,2,0.2c0.6,0.2,1.1,0.5,1.5,1c0.4,0.6,0.7,1.3,0.7,2v6.7C494.2,167.4,494.1,167.4,494.1,167.4z"/>
	<path class="st7" d="M502.2,159.6h-2.6v4.5c0,0.4,0.1,0.7,0.4,1c0.3,0.3,0.7,0.4,1.3,0.4h0.8v1.9h-2.5c-0.7,0-1.6-0.3-2.1-0.8
		c-0.3-0.3-0.5-0.7-0.6-1.1c-0.1-0.4-0.1-0.8-0.1-1.4v-4.6h-1.7v-2h1.7V154h2.8v3.5h2.6L502.2,159.6L502.2,159.6z"/>
	<path class="st7" d="M518.1,160.7c0,2.6-0.7,4.5-2.2,5.6c-1.2,0.9-2.9,1.4-5.1,1.4c-2.5,0-4.3-0.5-5.5-1.6c-1.3-1.1-2-3-2-5.5
		c0-2.1,0.6-3.7,1.7-4.9c1.3-1.3,3.2-1.9,5.7-1.9c2.8,0,4.7,0.6,5.9,1.8C517.6,156.7,518.1,158.4,518.1,160.7L518.1,160.7z
		 M514.6,160.6c0-1.3-0.3-2.4-0.9-3.1c-0.7-0.9-1.7-1.3-3.1-1.3c-1.4,0-2.4,0.5-3.1,1.4c-0.6,0.8-0.9,1.8-0.9,3
		c0,1.4,0.2,2.5,0.7,3.2c0.6,1,1.8,1.4,3.5,1.4c1.5,0,2.5-0.5,3.1-1.4C514.4,163.1,514.6,162.1,514.6,160.6L514.6,160.6z"/>
	<path class="st7" d="M533.7,163.3c0,1.2-0.4,2.2-1.2,3s-1.8,1.2-3,1.2H520v-2.4h7.8c0.5,0,1-0.1,1.3-0.4c0.4-0.3,0.6-0.7,0.6-1.1
		c0-1.1-0.8-1.7-2.4-1.7h-3.9c-1.1,0-2.1-0.4-3-1.1s-1.3-1.6-1.3-2.7c0-1.2,0.4-2.2,1.2-2.9c0.8-0.8,1.9-1.1,3.3-1.1h9.1v2.3h-8
		c-0.4,0-0.7,0.2-1.1,0.5c-0.4,0.3-0.5,0.6-0.5,1.1s0.2,0.8,0.5,1.2c0.4,0.3,0.8,0.5,1.3,0.5h4.3c1.4,0,2.4,0.4,3.2,1.1
		C533.3,161.2,533.7,162.1,533.7,163.3L533.7,163.3z"/>
	<polygon class="st8" points="443.8,160.4 438.5,165.5 433.3,160.4 438.5,155.2 	"/>
	<polygon class="st2" points="443.8,160.4 443.4,160 438.5,164.8 434,160.4 438.5,155.9 443.4,160.7 443.8,160.4 443.4,160 
		443.8,160.4 444.1,160 438.5,154.5 432.6,160.4 438.5,166.2 444.5,160.4 444.1,160 	"/>
	<polygon class="st9" points="444.9,159.3 439.7,154.1 444.9,149 450,154.1 	"/>
	<polygon class="st2" points="444.9,159.3 445.2,159 440.4,154.1 444.9,149.7 449.3,154.1 444.5,159 444.9,159.3 445.2,159 
		444.9,159.3 445.2,159.7 450.7,154.1 444.9,148.2 439,154.1 444.9,160 445.2,159.7 	"/>
	<polygon class="st10" points="450,166.6 444.8,171.8 439.6,166.6 444.8,161.5 	"/>
	<polygon class="st2" points="450,166.6 449.7,166.3 444.8,171.1 440.3,166.6 444.8,162.2 449.7,167 450,166.6 449.7,166.3 
		450,166.6 450.4,166.3 444.8,160.8 438.8,166.6 444.8,172.5 450.7,166.6 450.4,166.3 	"/>
	<polygon class="st7" points="451.1,165.6 446,160.4 451.1,155.2 456.3,160.4 	"/>
	<polygon class="st2" points="451.1,165.6 451.5,165.2 446.7,160.4 451.1,155.9 455.6,160.4 450.8,165.2 451.1,165.6 451.5,165.2 
		451.1,165.6 451.5,165.9 457,160.4 451.1,154.5 445.3,160.4 451.1,166.3 451.5,165.9 	"/>
	<rect x="436.8" y="152.3" class="st11" width="7" height="7"/>
	<rect x="445.9" y="161.4" class="st9" width="7" height="7"/>
	<rect x="445.9" y="152.3" class="st8" width="7" height="7"/>
	<rect x="436.5" y="152" class="st10" width="7.3" height="7.3"/>
	<polygon class="st2" points="436.5,152 436.5,152.5 443.3,152.5 443.3,158.8 437,158.8 437,152 436.5,152 436.5,152.5 436.5,152 
		436,152 436,159.8 444.3,159.8 444.3,151.5 436,151.5 436,152 	"/>
	<polygon class="st2" points="445.9,161.4 445.9,161.9 452.6,161.9 452.6,168.2 446.4,168.2 446.4,161.4 445.9,161.4 445.9,161.9 
		445.9,161.4 445.4,161.4 445.4,169.2 453.6,169.2 453.6,160.9 445.4,160.9 445.4,161.4 	"/>
	<polygon class="st2" points="445.9,152.1 445.9,152.6 452.7,152.6 452.7,158.8 446.4,158.8 446.4,152.1 445.9,152.1 445.9,152.6 
		445.9,152.1 445.4,152.1 445.4,159.8 453.7,159.8 453.7,151.6 445.4,151.6 445.4,152.1 	"/>
	<rect x="436.5" y="161.4" class="st7" width="7.3" height="7.3"/>
	<polygon class="st2" points="436.5,161.4 436.5,161.9 443.3,161.9 443.3,168.2 437,168.2 437,161.4 436.5,161.4 436.5,161.9 
		436.5,161.4 436,161.4 436,169.2 444.3,169.2 444.3,160.9 436,160.9 436,161.4 	"/>
	<polygon class="st2" points="443.8,160.4 443.4,160 438.5,164.8 434,160.4 438.5,155.9 443.4,160.7 443.8,160.4 443.4,160 
		443.8,160.4 444.1,160 438.5,154.5 432.6,160.4 438.5,166.2 444.5,160.4 444.1,160 	"/>
	<polygon class="st2" points="444.9,159.3 445.2,159 440.4,154.1 444.9,149.7 449.3,154.1 444.5,159 444.9,159.3 445.2,159 
		444.9,159.3 445.2,159.7 450.7,154.1 444.9,148.2 439,154.1 444.9,160 445.2,159.7 	"/>
	<polygon class="st2" points="450,166.6 449.7,166.3 444.8,171.1 440.3,166.6 444.8,162.2 449.7,167 450,166.6 449.7,166.3 
		450,166.6 450.4,166.3 444.8,160.8 438.8,166.6 444.8,172.5 450.7,166.6 450.4,166.3 	"/>
	<polygon class="st2" points="451.1,165.6 451.5,165.2 446.7,160.4 451.1,155.9 455.6,160.4 450.8,165.2 451.1,165.6 451.5,165.2 
		451.1,165.6 451.5,165.9 457,160.4 451.1,154.5 445.3,160.4 451.1,166.3 451.5,165.9 	"/>
</g>
<g>
	<g>
		<path class="st12" d="M316.7,46.8v14.4c0,0.4-0.3,0.8-0.6,0.9c-0.1,0-0.2,0.1-0.3,0.1c-0.3,0-0.6-0.1-0.7-0.4l-9.7-12.3v11.7
			c0,0.5-0.4,0.9-0.9,0.9s-0.9-0.4-0.9-0.9V46.8c0-0.4,0.3-0.8,0.6-0.9c0.4-0.1,0.8,0,1.1,0.3l9.7,12.3V46.8c0-0.5,0.4-0.9,0.9-0.9
			C316.3,45.8,316.7,46.3,316.7,46.8z M336.1,54c0,4.7-3.6,8.5-8,8.5s-8-3.8-8-8.5s3.6-8.5,8-8.5S336.1,49.3,336.1,54z M334.2,54
			c0-3.6-2.8-6.6-6.2-6.6s-6.2,3-6.2,6.6c0,3.6,2.8,6.6,6.2,6.6S334.2,57.6,334.2,54z M400.7,54c0,4.7-3.6,8.5-8,8.5
			c-4.4,0-8-3.8-8-8.5s3.6-8.5,8-8.5C397,45.5,400.7,49.3,400.7,54z M398.8,54c0-3.6-2.8-6.6-6.2-6.6c-3.4,0-6.2,3-6.2,6.6
			c0,3.6,2.8,6.6,6.2,6.6C396,60.6,398.8,57.6,398.8,54z M416.1,45.8c-0.5,0-0.9,0.4-0.9,0.9v8.8c0,2.8-2.2,5-4.8,5
			c-2.7,0-4.8-2.2-4.8-5v-8.8c0-0.5-0.4-0.9-0.9-0.9c-0.5,0-0.9,0.4-0.9,0.9v8.8c0,3.8,3,6.9,6.7,6.9s6.7-3.1,6.7-6.9v-8.8
			C417.1,46.3,416.6,45.8,416.1,45.8z M382,56.6c-0.2-0.7-0.7-1.4-1.3-1.8c-0.5-0.5-1.1-0.8-1.8-1.1c-0.6-0.3-1.2-0.5-1.9-0.6
			c-0.3-0.1-0.6-0.1-0.9-0.2c-0.3-0.1-0.6-0.1-0.8-0.2c-0.5-0.1-1.1-0.3-1.5-0.5c-0.5-0.2-0.9-0.5-1.1-0.8c-0.1-0.2-0.2-0.3-0.3-0.5
			c-0.1-0.2-0.1-0.4-0.1-0.5c-0.1-0.9,0.2-1.6,0.8-2.1c0.6-0.5,1.4-0.8,2.2-0.8c0.8-0.1,1.5-0.1,2.1,0.1c0.6,0.1,1.2,0.3,1.6,0.5
			c0.4,0.2,0.8,0.4,1,0.5c0.1,0.1,0.2,0.1,0.3,0.2c0.1,0,0.1,0.1,0.1,0.1l0,0c0.4,0.2,0.9,0.2,1.1-0.2c0.3-0.4,0.2-0.9-0.2-1.2
			c0,0-0.1-0.1-0.4-0.3c-0.3-0.2-0.6-0.4-1.1-0.7c-0.5-0.3-1.2-0.6-2-0.7c-0.8-0.2-1.8-0.3-2.8-0.1c-1,0.1-2.2,0.4-3.2,1.3
			c-0.5,0.4-0.9,1-1.2,1.7c-0.1,0.2-0.1,0.3-0.2,0.5c0,0.2-0.1,0.3-0.1,0.5l0,0.3l0,0.1l0,0.1l0,0.1l0,0.2c0,0.1,0,0.1,0,0.2
			c0.1,0.4,0.1,0.8,0.3,1.1c0.2,0.4,0.4,0.7,0.6,1c0.5,0.6,1.1,0.9,1.7,1.2c0.6,0.3,1.2,0.5,1.9,0.6c0.3,0.1,0.6,0.1,0.9,0.2
			c0.3,0.1,0.6,0.1,0.8,0.2c1.1,0.3,2.1,0.7,2.8,1.3c0.7,0.6,1,1.3,0.7,2.2c0,0.1-0.1,0.3-0.2,0.5c0,0.1-0.1,0.2-0.2,0.2
			c-0.1,0.1-0.1,0.2-0.2,0.2c-0.3,0.3-0.6,0.5-1,0.7c-0.8,0.4-1.6,0.5-2.4,0.5c-0.1,0-0.5,0-0.6,0c-0.2,0-0.3,0-0.5-0.1
			c-0.3-0.1-0.7-0.2-1-0.3c-0.6-0.2-1.1-0.5-1.6-0.7c-0.4-0.2-0.7-0.5-0.9-0.6c-0.2-0.1-0.3-0.2-0.3-0.2c-0.3-0.3-0.9-0.3-1.2,0.1
			c-0.3,0.3-0.3,0.9,0,1.2l0,0c0,0,0.1,0.1,0.4,0.3c0.2,0.2,0.6,0.5,1.1,0.8c0.5,0.3,1.1,0.6,1.9,0.9c0.4,0.1,0.8,0.3,1.3,0.4
			c0.2,0,0.5,0.1,0.7,0.1c0.3,0,0.4,0,0.7,0c1,0,2.1-0.2,3.2-0.7c1.1-0.5,2.3-1.5,2.6-3l0-0.1l0-0.1l0-0.2l0-0.1l0-0.1l0,0l0-0.1
			l0-0.3c0-0.2,0-0.4-0.1-0.6C382.1,57,382.1,56.8,382,56.6z M352.8,54c0,5.2-3.4,8.2-9.2,8.2h-3.3c-0.5,0-0.9-0.4-0.9-0.9V46.8
			c0-0.5,0.4-0.9,0.9-0.9h3.3C349.9,45.8,352.8,49.9,352.8,54z M350.9,54c0-3.8-2.9-6.3-7.3-6.3h-2.4v12.6h2.4
			C349.6,60.3,350.9,56.9,350.9,54z M366.6,47.7c0.5,0,0.9-0.4,0.9-0.9s-0.4-0.9-0.9-0.9h-9.6c-0.5,0-0.9,0.4-0.9,0.9v14.4
			c0,0.5,0.4,0.9,0.9,0.9h9.6c0.5,0,0.9-0.4,0.9-0.9s-0.4-0.9-0.9-0.9h-8.7v-5.4h6.1c0.5,0,0.9-0.4,0.9-0.9S364.5,53,364,53h-6.1
			v-5.3H366.6z M464.3,47.7c0.5,0,0.9-0.4,0.9-0.9s-0.4-0.9-0.9-0.9h-9.6c-0.5,0-0.9,0.4-0.9,0.9v14.4c0,0.5,0.4,0.9,0.9,0.9h9.6
			c0.5,0,0.9-0.4,0.9-0.9s-0.4-0.9-0.9-0.9h-8.7v-5.4h6.1c0.5,0,0.9-0.4,0.9-0.9s-0.4-0.9-0.9-0.9h-6.1v-5.3H464.3z M433.1,60.7
			c0.3,0.4,0.2,1-0.2,1.3c-0.2,0.1-0.4,0.2-0.5,0.2c-0.3,0-0.6-0.1-0.8-0.4l-4.8-6.9h-4.2v6.3c0,0.5-0.4,0.9-0.9,0.9
			s-0.9-0.4-0.9-0.9V46.8c0-0.5,0.4-0.9,0.9-0.9h6.7c2.9,0,4.9,1.9,4.9,4.5c0,2.4-1.7,4.2-4.2,4.5L433.1,60.7z M428.3,53
			c1.8,0,3-1.1,3-2.6c0-1.6-1.2-2.6-3-2.6h-5.8V53H428.3z M437.6,53.2c0-0.2,0.1-0.4,0.1-0.7c0.1-0.5,0.3-0.9,0.5-1.3
			c0.4-0.9,1-1.6,1.7-2.2c0.7-0.6,1.5-1,2.2-1.3c0.8-0.3,1.6-0.3,2.3-0.3c0.7,0,1.4,0.2,1.9,0.3c0.6,0.2,1,0.4,1.4,0.6
			c0.4,0.2,0.6,0.4,0.8,0.6c0.2,0.1,0.3,0.2,0.3,0.2l0,0c0.3,0.3,0.8,0.3,1.2-0.1c0.3-0.3,0.3-0.9,0-1.2c0,0-0.1-0.1-0.3-0.3
			c-0.2-0.2-0.5-0.5-1-0.8c-0.9-0.6-2.3-1.3-4.2-1.3c-0.9,0-1.9,0.1-2.9,0.4c-1,0.3-2,0.9-2.9,1.6c-0.9,0.8-1.6,1.7-2.1,2.8
			c-0.3,0.5-0.5,1.1-0.6,1.7c-0.1,0.3-0.1,0.6-0.2,1c0,0.2,0,0.3,0,0.4l0,0.5c0,1.2,0.3,2.5,0.8,3.6c0.5,1.1,1.3,2.1,2.1,2.8
			c0.9,0.8,1.9,1.3,2.9,1.6c0.5,0.2,1,0.3,1.5,0.4c0.3,0,0.5,0.1,0.7,0.1c0.1,0,0.2,0,0.3,0l0.1,0l0.1,0l0.2,0
			c0.9,0,1.8-0.2,2.5-0.5c0.7-0.3,1.3-0.6,1.7-0.9c0.4-0.3,0.8-0.6,1-0.8c0.2-0.2,0.3-0.3,0.3-0.3c0.3-0.3,0.4-0.8,0.1-1.2
			c-0.3-0.4-0.8-0.4-1.2-0.1l0,0c0,0-0.1,0.1-0.3,0.3c-0.2,0.1-0.4,0.3-0.8,0.5c-0.7,0.4-1.9,0.9-3.3,1l-0.1,0l-0.1,0l0,0
			c-0.1,0-0.2,0-0.3,0c-0.2,0-0.4,0-0.6-0.1c-0.3,0-0.7-0.1-1.1-0.3c-0.8-0.3-1.6-0.7-2.2-1.3c-0.7-0.6-1.3-1.3-1.7-2.2
			c-0.4-0.9-0.6-1.8-0.6-2.8l0-0.4C437.6,53.5,437.6,53.4,437.6,53.2z"/>
	</g>
	<path class="st13" d="M291.3,44.1l-11.4-6.6c-0.6-0.3-1.2-0.5-1.9-0.5c-0.7,0-1.3,0.2-1.9,0.5l-11.4,6.6c-1.2,0.7-1.9,1.9-1.9,3.3
		l0,13.2c0,1.4,0.7,2.6,1.9,3.3l11.4,6.6c0.6,0.3,1.2,0.5,1.9,0.5c0.7,0,1.3-0.2,1.9-0.5l11.4-6.6c1.2-0.7,1.9-1.9,1.9-3.3l0-13.2
		C293.2,46.1,292.5,44.8,291.3,44.1z M276.8,38.7c0.2-0.1,0.4-0.2,0.6-0.2V44c0,0.4,0.3,0.7,0.7,0.7c0.4,0,0.7-0.3,0.7-0.7v-5.6
		c0.2,0.1,0.4,0.1,0.6,0.3l11.4,6.6c0.2,0.1,0.4,0.2,0.5,0.4l-6.9,4c-1.4-2-3.7-3.3-6.3-3.3c-2.6,0-4.9,1.3-6.3,3.3l-6.9-4
		c0.2-0.2,0.3-0.3,0.5-0.4L276.8,38.7z M284.4,54c0,3.3-2.5,6-5.7,6.3v-5.9l5.1-3C284.2,52.2,284.4,53.1,284.4,54z M272.2,51.4
		l5.1,3v5.9c-3.2-0.3-5.7-3-5.7-6.3C271.7,53.1,271.9,52.2,272.2,51.4z M278,53.2l-5.1-3c1.2-1.6,3-2.6,5.1-2.6c2.1,0,4,1,5.1,2.6
		L278,53.2z M265.3,62.8c-0.2-0.1-0.4-0.2-0.5-0.4l4.5-2.6c0.3-0.2,0.4-0.6,0.2-0.9c-0.2-0.3-0.6-0.4-0.9-0.2l-4.5,2.6
		c-0.1-0.2-0.1-0.4-0.1-0.6l0-13.2c0-0.2,0-0.4,0.1-0.6l6.9,4c-0.5,1-0.7,2.1-0.7,3.2c0,4,3.1,7.3,7,7.6v7.8c0,0.1,0,0.1,0,0.2
		c-0.2-0.1-0.4-0.1-0.7-0.3L265.3,62.8z M279.2,69.3c-0.2,0.1-0.4,0.2-0.6,0.3c0-0.1,0-0.1,0-0.2v-7.8c3.9-0.3,7-3.6,7-7.6
		c0-1.2-0.3-2.3-0.7-3.2l6.9-4c0.1,0.2,0.1,0.4,0.1,0.6l0,13.2c0,0.2,0,0.4-0.1,0.7l-4.4-2.6c-0.3-0.2-0.7-0.1-0.9,0.2
		c-0.2,0.3-0.1,0.7,0.2,0.9l4.4,2.6c-0.1,0.1-0.3,0.3-0.5,0.4L279.2,69.3z"/>
</g>
<line class="st14" x1="51.2" y1="108" x2="676.8" y2="108"/>
</svg>
