<?xml version="1.0" encoding="utf-8"?>
<!-- Generator: Adobe Illustrator 21.1.0, SVG Export Plug-In . SVG Version: 6.00 Build 0)  -->
<svg version="1.1" id="Layer_1" xmlns="http://www.w3.org/2000/svg" xmlns:xlink="http://www.w3.org/1999/xlink" x="0px" y="0px"
	 viewBox="0 0 728 138" style="enable-background:new 0 0 728 138;" xml:space="preserve">
<style type="text/css">
	.st0{fill:#DD4814;}
	.st1{fill:#FFFFFF;}
	.st2{fill:#020001;}
	.st3{fill:#E03127;}
	.st4{fill:#072B61;}
	.st5{fill:#0A57A4;}
	.st6{fill:#A80030;}
	.st7{fill:#262577;}
	.st8{fill:#932279;}
	.st9{fill:#EFA724;}
	.st10{fill:#9CCD2A;}
	.st11{fill:#FCE94F;}
	.st12{fill:#4C5859;}
</style>
<circle class="st0" cx="286.2" cy="63.4" r="4.9"/>
<path class="st1" d="M283.2,62.8c-0.3,0-0.6,0.3-0.6,0.6s0.3,0.6,0.6,0.6c0.3,0,0.6-0.3,0.6-0.6C283.8,63,283.5,62.8,283.2,62.8z
	 M287.4,65.5c-0.3,0.2-0.4,0.5-0.2,0.8c0.2,0.3,0.5,0.4,0.8,0.2c0.3-0.2,0.4-0.5,0.2-0.8C288.1,65.4,287.7,65.3,287.4,65.5z
	 M284.5,63.4c0-0.6,0.3-1.1,0.7-1.4l-0.4-0.7c-0.5,0.3-0.9,0.9-1.1,1.5c0.2,0.2,0.3,0.4,0.3,0.6c0,0.3-0.1,0.5-0.3,0.6
	c0.2,0.6,0.5,1.2,1.1,1.5l0.4-0.7C284.7,64.5,284.5,63.9,284.5,63.4z M286.2,61.6c0.9,0,1.6,0.7,1.7,1.6h0.8c0-0.7-0.3-1.2-0.8-1.7
	c-0.2,0.1-0.5,0.1-0.7-0.1c-0.2-0.1-0.4-0.3-0.4-0.6c-0.2-0.1-0.5-0.1-0.7-0.1c-0.4,0-0.8,0.1-1.1,0.3l0.4,0.7
	C285.7,61.7,285.9,61.6,286.2,61.6z M286.2,65.1c-0.3,0-0.5-0.1-0.7-0.2l-0.4,0.7c0.3,0.2,0.7,0.3,1.1,0.3c0.2,0,0.5,0,0.7-0.1
	c0-0.2,0.2-0.5,0.4-0.6c0.2-0.1,0.5-0.1,0.7-0.1c0.4-0.4,0.7-1,0.8-1.7H288C287.8,64.4,287.1,65.1,286.2,65.1z M287.4,61.3
	c0.3,0.2,0.6,0.1,0.8-0.2c0.2-0.3,0.1-0.6-0.2-0.8c-0.3-0.2-0.6-0.1-0.8,0.2C287,60.7,287.1,61.1,287.4,61.3z"/>
<path d="M218.5,76.3c-0.5,0.1-1.2,0.3-2,0.4s-1.8,0.2-2.9,0.2c-0.9,0-1.7-0.1-2.4-0.4c-0.6-0.3-1.2-0.7-1.6-1.2
	c-0.4-0.5-0.7-1.1-0.8-1.8c-0.2-0.7-0.3-1.4-0.3-2.3v-6.9h2.2v6.4c0,1.5,0.2,2.6,0.7,3.2s1.3,1,2.4,1c0.2,0,0.5,0,0.7,0
	c0.3,0,0.5,0,0.7-0.1c0.2,0,0.4,0,0.6-0.1c0.2,0,0.3-0.1,0.4-0.1V64.4h2.2L218.5,76.3L218.5,76.3z"/>
<path d="M223.9,65c0.3-0.2,0.7-0.4,1.2-0.5s1.2-0.3,1.9-0.3c0.9,0,1.7,0.2,2.3,0.5c0.7,0.3,1.3,0.8,1.7,1.3c0.5,0.6,0.8,1.2,1.1,2
	c0.2,0.8,0.4,1.6,0.4,2.6s-0.1,1.9-0.4,2.7c-0.3,0.8-0.7,1.5-1.2,2s-1.2,1-1.9,1.3c-0.8,0.3-1.6,0.4-2.5,0.4c-1,0-1.9-0.1-2.7-0.2
	s-1.4-0.3-1.9-0.4V58.8l2.2-0.4L223.9,65L223.9,65z M223.9,74.8c0.2,0.1,0.5,0.1,0.9,0.2s0.9,0.1,1.5,0.1c1.2,0,2.1-0.4,2.8-1.2
	c0.7-0.8,1.1-1.9,1.1-3.3c0-0.6-0.1-1.2-0.2-1.8c-0.1-0.5-0.3-1-0.6-1.4s-0.6-0.7-1.1-0.9c-0.4-0.2-1-0.3-1.6-0.3s-1.1,0.1-1.6,0.3
	c-0.5,0.2-0.9,0.4-1.2,0.6L223.9,74.8L223.9,74.8z"/>
<path d="M244.7,76.3c-0.5,0.1-1.2,0.3-2,0.4s-1.8,0.2-2.9,0.2c-0.9,0-1.7-0.1-2.4-0.4c-0.6-0.3-1.2-0.7-1.6-1.2
	c-0.4-0.5-0.7-1.1-0.8-1.8c-0.2-0.7-0.3-1.4-0.3-2.3v-6.9h2.2v6.4c0,1.5,0.2,2.6,0.7,3.2s1.3,1,2.4,1c0.2,0,0.5,0,0.7,0
	c0.3,0,0.5,0,0.7-0.1c0.2,0,0.4,0,0.6-0.1c0.2,0,0.3-0.1,0.4-0.1V64.4h2.2L244.7,76.3L244.7,76.3z"/>
<path d="M247.8,64.8c0.5-0.1,1.2-0.3,2-0.4s1.8-0.2,2.9-0.2c1,0,1.8,0.1,2.4,0.4s1.2,0.7,1.5,1.2c0.4,0.5,0.7,1.1,0.8,1.8
	c0.2,0.7,0.2,1.5,0.2,2.3v6.9h-2.2v-6.4c0-0.8-0.1-1.4-0.2-1.9s-0.3-1-0.5-1.3s-0.5-0.6-0.9-0.7s-0.9-0.2-1.5-0.2
	c-0.2,0-0.5,0-0.7,0c-0.3,0-0.5,0-0.7,0.1c-0.2,0-0.4,0.1-0.6,0.1s-0.3,0.1-0.4,0.1v10.3h-2.2V64.8H247.8z"/>
<path d="M262.7,64.4h4.6v1.8h-4.6v5.6c0,0.6,0,1.1,0.1,1.5s0.2,0.7,0.4,0.9c0.2,0.2,0.4,0.4,0.7,0.5c0.3,0.1,0.6,0.1,1,0.1
	c0.7,0,1.2-0.1,1.6-0.2s0.7-0.3,0.8-0.3l0.5,1.8c-0.2,0.1-0.6,0.3-1.2,0.4c-0.6,0.2-1.2,0.3-1.9,0.3c-0.8,0-1.5-0.1-2.1-0.3
	c-0.5-0.2-1-0.5-1.3-1c-0.3-0.4-0.6-0.9-0.7-1.6c-0.1-0.6-0.2-1.3-0.2-2.2V61l2.2-0.4L262.7,64.4L262.7,64.4z"/>
<path d="M279.3,76.3c-0.5,0.1-1.2,0.3-2,0.4s-1.8,0.2-2.9,0.2c-0.9,0-1.7-0.1-2.4-0.4c-0.6-0.3-1.2-0.7-1.6-1.2s-0.7-1.1-0.8-1.8
	c-0.2-0.7-0.3-1.4-0.3-2.3v-6.9h2.2v6.4c0,1.5,0.2,2.6,0.7,3.2s1.3,1,2.4,1c0.2,0,0.5,0,0.7,0c0.3,0,0.5,0,0.7-0.1
	c0.2,0,0.4,0,0.6-0.1c0.2,0,0.3-0.1,0.4-0.1V64.4h2.2L279.3,76.3L279.3,76.3z"/>
<path class="st2" d="M349,75.7c-0.7-0.2-1.5-0.3-2.3-0.3c-1.3,0-2.6,0.2-3.5,0.6c-0.1,0-0.2,0.2-0.2,0.3v0.1
	c0.1,0.3-0.1,0.6-0.9,0.8c-1.3,0.3-2.1,1.6-2.6,2.1s-2.1,0.8-1.9,0.5c0.2-0.2,0.9-1,1.3-1.8c0.4-0.7,0.7-0.9,1.2-1.6
	c0.1-0.2,0.7-0.9,0.8-1.5c0.2-0.6,0.1-1.2,0.2-1.5c0.1-0.4,0.5-1.3,0.5-1.8c0-0.3-1.2,0.4-1.8,0.4s-1.1-0.3-1.6-0.4
	c-0.6,0-1,0.5-1.6,0.4c-0.3-0.1-0.6-0.3-1.2-0.4c-0.8,0-1.8,0.5-3.7,0.4c-1.8-0.1-3.5-2.3-3.8-2.7c-0.3-0.4-0.6-0.4-1-0.1
	s-0.8,0.1-0.9-0.1c-0.2-0.4-0.9-1.7-1.9-1.9c-1.4-0.4-2.1,0.8-2,1.7c0.1,0.9,0.7,1.2,1,1.6c0.3,0.5,0.4,0.8,0.9,1
	c0.4,0.2,0.5,0.4,0.4,0.7c-0.1,0.3-0.5,0.3-0.7,0.3c-0.5,0-0.9-0.1-1.2-0.3c-0.3-0.2-0.6-0.5-0.8-0.9c-0.3-0.5-0.8-0.7-1.4-0.7
	c-0.3,0-0.5,0.1-0.8,0.2c-0.9,0.5-2,0.8-3.2,0.8H315c-0.6-1.9-1-3.9-1-6.1c0-10.5,8.5-18.9,18.9-18.9c10.5,0,18.9,8.5,18.9,18.9
	C352,69.2,350.9,72.7,349,75.7z"/>
<path class="st2" d="M337.2,73.9c0.1,0.1,0.3,0.4,0.1,0.8c-0.1,0.2-0.2,0.4-0.5,0.5c-0.3,0.2-0.8,0.5-1.5,0
	c-0.4-0.2-0.4-0.3-0.9-0.3c-0.4,0-0.5-0.3-0.4-0.7c0.1-0.3,0.7-0.6,1.4-0.2c0.3,0.2,0.8,0.6,1.2,0.2
	C336.8,74.3,336.9,74.2,337.2,73.9L337.2,73.9L337.2,73.9z"/>
<path class="st3" d="M343.7,60.4c-0.2,0.6-0.5,1.4-1.6,2c-0.2,0.1-0.2-0.1-0.2-0.2c0.4-0.8,0.5-1,0.7-1.3c0.2-0.4,0.3-1.1-0.1-2.4
	c-0.7-2.6-2.2-6-3.3-7.1c-1-1.1-2.9-1.4-4.6-0.9c-0.6,0.2-1.9,0.8-4.1,0.3c-3.9-0.9-4.5,1.1-4.8,1.9c-0.2,0.9-0.8,3.3-0.8,3.3
	c-0.2,1-0.4,2.7,5.7,3.9c2.9,0.5,3,1.3,3.1,1.8c0.2,1,0.6,1.5,1,1.8s0,0.5-0.5,0.5c-1.2,0.1-5.7-1.2-8.4-2.7
	c-2.2-1.3-2.2-2.5-1.7-3.5c-3.3-0.4-5.7,0.3-6.2,1.9c-0.8,2.7,5.9,7.2,13.4,9.5c7.9,2.4,16.1,0.7,17-4.3
	C348.9,62.8,347,61.1,343.7,60.4z"/>
<path class="st2" d="M351.3,74.9h0.1l0.2,0.3h0.1l-0.2-0.3c0.1,0,0.2-0.1,0.2-0.2s-0.1-0.2-0.3-0.2h-0.3v0.7h0.1v-0.3H351.3z
	 M351.3,74.8v-0.2h0.2c0.1,0,0.2,0,0.2,0.1s-0.1,0.1-0.2,0.1H351.3z"/>
<path class="st2" d="M352.1,74.8c0,0.4-0.3,0.7-0.7,0.7c-0.4,0-0.7-0.3-0.7-0.7c0-0.4,0.3-0.7,0.7-0.7
	C351.8,74.1,352.1,74.4,352.1,74.8z M351.4,74.2c-0.3,0-0.6,0.3-0.6,0.6c0,0.3,0.3,0.6,0.6,0.6c0.3,0,0.6-0.3,0.6-0.6
	S351.7,74.2,351.4,74.2z"/>
<path class="st2" d="M331.6,55.5c-2.2,0.2-2.4,0.4-2.8,0.8c-0.6,0.6-1.3-0.8-1.3-0.8c-0.5-0.1-1-0.8-0.7-1.5s0.8-0.5,1-0.3
	c0.2,0.3,0.6,0.7,1.2,0.7s1.2-0.1,2.2-0.1c0.9,0,1.6,0.3,1.6,0.6C332.7,55.2,332.6,55.4,331.6,55.5z"/>
<path class="st2" d="M333.9,51.9L333.9,51.9L333.9,51.9v-0.1c0.4-0.2,1.1-0.4,1.8-0.5c0.2,0,0.4,0,0.6,0h0.1c1.2,0,2.2,0.5,2.2,1.1
	s-1,1-2.2,1c-0.4,0-0.8-0.1-1.1-0.2l-0.1-0.1l0.1-0.1c0.8-0.2,1.3-0.5,1.2-0.7c0-0.4-1-0.6-2.2-0.4C334.1,51.8,334,51.9,333.9,51.9z
	"/>
<path class="st2" d="M361.9,67.3c0-1.7,0-3-0.1-4.1h2.8l0.1,2.4h0.1c0.6-1.8,2.1-2.7,3.5-2.7c0.3,0,0.5,0,0.8,0.1v3
	c-0.3-0.1-0.6-0.1-1-0.1c-1.5,0-2.6,1-2.9,2.4c-0.1,0.3-0.1,0.6-0.1,1V76h-3.2L361.9,67.3z"/>
<path class="st2" d="M372.9,70.5c0.1,2.3,1.9,3.3,3.9,3.3c1.5,0,2.5-0.2,3.5-0.6l0.5,2.2c-1.1,0.5-2.6,0.8-4.4,0.8
	c-4.1,0-6.5-2.5-6.5-6.4c0-3.5,2.1-6.8,6.2-6.8s5.5,3.4,5.5,6.2c0,0.6-0.1,1.1-0.1,1.4L372.9,70.5z M378.5,68.2
	c0-1.2-0.5-3.1-2.6-3.1c-2,0-2.8,1.8-2.9,3.1H378.5z"/>
<path class="st2" d="M419,73c0,1,0,2,0.2,3h-1.1l-0.2-1.8h-0.1c-0.6,1-2,2.1-4,2.1c-2.5,0-3.7-1.8-3.7-3.4c0-2.9,2.5-4.6,7.6-4.6V68
	c0-1.2-0.2-3.7-3.2-3.7c-1.1,0-2.2,0.3-3.1,0.9l-0.4-0.9c1.1-0.8,2.5-1.1,3.7-1.1c3.6,0,4.3,2.7,4.3,4.9L419,73L419,73z M417.8,69.3
	c-2.7-0.1-6.3,0.3-6.3,3.3c0,1.8,1.2,2.6,2.5,2.6c2.1,0,3.3-1.3,3.7-2.5c0.1-0.3,0.1-0.5,0.1-0.8L417.8,69.3L417.8,69.3z"/>
<path class="st2" d="M424.1,60.7v2.8h3.6v1h-3.6v8.1c0,1.6,0.5,2.6,1.8,2.6c0.6,0,1.1-0.1,1.4-0.2l0.2,1c-0.4,0.2-1,0.3-1.7,0.3
	c-0.9,0-1.7-0.3-2.2-0.9c-0.6-0.7-0.8-1.7-0.8-3v-7.9h-2.1v-1h2.1v-2.3L424.1,60.7z"/>
<path class="st2" d="M403.7,63.2c-1,0-1.8,0.3-2.5,0.7s-1.4,1.1-1.7,1.8h-0.1v-6.2l-1.2-0.3V76h1.2v-7.7c0-0.5,0-0.9,0.2-1.2
	c0.5-1.6,2-2.8,3.8-2.8c2.6,0,3.4,2.1,3.4,4.3V76h1.2v-7.5C408.1,63.7,404.9,63.2,403.7,63.2z"/>
<path class="st2" d="M395.3,58.4l-3.2-0.9v7.1H392c-0.6-0.9-1.8-1.7-3.6-1.7c-3.1,0-5.7,2.5-5.7,6.8c0,3.9,2.4,6.5,5.4,6.5
	c1.8,0,3.4-0.9,4.1-2.3h0.1l0.1,2h2.9c-0.1-0.9-0.1-2.3-0.1-3.6V58.4H395.3z M392.1,70.5c0,0.3,0,0.7-0.1,0.9
	c-0.3,1.4-1.5,2.3-2.8,2.3c-2,0-3.2-1.7-3.2-4c0-2.4,1.1-4.2,3.2-4.2c1.4,0,2.5,1,2.8,2.3c0.1,0.3,0.1,0.6,0.1,0.8V70.5z"/>
<path class="st2" d="M429.4,75.4h0.2l0.2,0.4h0.1l-0.2-0.4c0.1,0,0.2-0.1,0.2-0.2c0-0.2-0.1-0.2-0.3-0.2h-0.3v0.9h0.1L429.4,75.4
	L429.4,75.4z M429.4,75.3V75h0.2c0.1,0,0.2,0,0.2,0.1s-0.1,0.1-0.2,0.1L429.4,75.3L429.4,75.3z"/>
<path class="st2" d="M430.4,75.3c0,0.5-0.4,0.9-0.9,0.9s-0.9-0.4-0.9-0.9s0.4-0.9,0.9-0.9C430,74.5,430.4,74.9,430.4,75.3z
	 M429.6,74.6c-0.4,0-0.7,0.3-0.7,0.7c0,0.4,0.3,0.7,0.7,0.7c0.4,0,0.7-0.3,0.7-0.7C430.3,75,429.9,74.6,429.6,74.6z"/>
<path class="st4" d="M659.6,55.2c0-4.2-3.4-7.6-7.6-7.6c-4.2,0-7.6,3.4-7.6,7.6l0,0V61l0,0c0,0.9,0.8,1.7,1.7,1.7l0,0l0,0h5.8
	C656.2,62.7,659.6,59.3,659.6,55.2"/>
<path class="st5" d="M654.3,49.4c-2,0-3.5,1.6-3.5,3.5v1.9h-1.9c-2,0-3.5,1.6-3.5,3.5c0,2,1.6,3.5,3.5,3.5c2,0,3.5-1.6,3.5-3.5v-1.9
	h1.9c2,0,3.5-1.6,3.5-3.5S656.2,49.4,654.3,49.4z M654.3,51.1c1,0,1.9,0.8,1.9,1.9c0,1-0.8,1.9-1.9,1.9l0,0h-1.6
	c-0.1,0-0.3-0.1-0.3-0.3V53C652.4,51.9,653.2,51.1,654.3,51.1z M605.6,55.8c-0.7,0-1.4,0.6-1.4,1.3v7.1c-0.7-1.3-2.2-2.1-3.9-2.1
	c-3.6,0-6,2.7-6,6.3c0,3.6,2.5,6.3,6,6.3c1.6,0,2.9-0.6,3.7-1.8l0.3,0.8c0.2,0.5,0.7,0.9,1.3,0.9c0.7,0,1.3-0.6,1.3-1.3l0,0V57.1
	C606.9,56.4,606.3,55.8,605.6,55.8z M578.1,55.9c-2.8,0-5.1,2.3-5.1,5.1v1.6h-1.7c-0.6,0-1.1,0.5-1.1,1.1s0.5,1.2,1.1,1.2h1.7v8.5
	c0,0.7,0.6,1.4,1.4,1.4c0.7,0,1.4-0.6,1.4-1.4v-8.5h1.8c0.6,0,1.1-0.6,1.1-1.2c0-0.6-0.5-1.1-1.1-1.1h-1.8V61c0-1.3,1.1-2.5,2.4-2.5
	c0.1,0,0.2,0,0.4,0c0.7,0.1,1.4-0.2,1.5-1c0.1-0.7-0.4-1.4-1.1-1.5C578.6,55.9,578.3,55.9,578.1,55.9z M648.8,56.5h1.6
	c0.1,0,0.3,0.1,0.3,0.3v1.6c0,1-0.8,1.9-1.9,1.9c-1,0-1.9-0.8-1.9-1.9C647,57.3,647.8,56.5,648.8,56.5z M657.5,60.9L657.5,60.9
	l0.1,0.1v0.4h0.1V61h0.1v-0.1H657.5z M657.9,60.9v0.5h0.1v-0.3l0,0l0,0l0.1,0.3l0.1-0.3V61v0.1v0.3h0.1v-0.5h-0.1l-0.1,0.3v0.1v-0.1
	L657.9,60.9L657.9,60.9z M586,62.1c-3.5,0-6.2,2.8-6.2,6.3s2.8,6.3,6.3,6.3c1.9,0,3.9-0.8,5-2.1c0.2-0.2,0.4-0.6,0.4-0.9
	c0-0.2-0.1-0.4-0.2-0.6c-0.2-0.3-0.6-0.4-0.9-0.4c-0.2,0-0.5,0.1-0.7,0.2c-1,0.9-2.2,1.5-3.6,1.5c-2,0-3.5-1.4-3.6-3.2
	c8.5,0,8.5,0,8.5,0c0.5,0,1-0.4,1-0.9C592.1,64.8,589.5,62.1,586,62.1z M615.4,62.1c-3.5,0-6.3,2.8-6.3,6.3s2.8,6.3,6.3,6.3
	s6.3-2.8,6.3-6.3C621.7,65,618.9,62.1,615.4,62.1z M630.8,62.1c-1.8,0-3.1,0.6-4.2,1.9l-0.1-0.6c-0.1-0.7-0.6-1.2-1.3-1.2
	s-1.4,0.6-1.4,1.4l0,0v9.7c0,0.7,0.6,1.4,1.4,1.4c0.7,0,1.4-0.6,1.4-1.4v-5.2c0-2.4,2.1-3.6,4.2-3.6c0.7,0,1.2-0.5,1.2-1.2
	C632,62.7,631.5,62.1,630.8,62.1z M638.8,62.1c-3.5,0-6.3,2.8-6.3,6.3s2.8,6.3,6.1,6.3c1.7,0,3.2-0.9,3.8-1.8l0.3,0.8
	c0.2,0.5,0.6,0.8,1.2,0.8c0.7,0,1.2-0.6,1.2-1.2v-3.2v-1.7C645.1,65.1,642.7,62.1,638.8,62.1z M586,64.4c1.8,0,3.1,1.3,3.4,3
	c0,0-2.6,0-6.8,0C582.9,65.6,584.1,64.4,586,64.4z M600.6,64.5c2.2,0,3.6,1.7,3.6,3.9c0,2.2-1.4,3.9-3.6,3.9c-2.2,0-3.6-1.8-3.6-3.9
	S598.4,64.5,600.6,64.5z M615.4,64.5c2.2,0,3.6,1.8,3.6,3.9s-1.4,3.9-3.6,3.9c-2.2,0-3.6-1.8-3.6-3.9
	C611.8,66.3,613.2,64.5,615.4,64.5z M638.8,64.5c2.2,0,3.6,1.8,3.6,3.9s-1.4,3.9-3.6,3.9c-2.2,0-3.6-1.8-3.6-3.9
	C635.1,66.3,636.6,64.5,638.8,64.5z M645.4,72.9L645.4,72.9l0.1,0.1v0.4h0.1V73h0.1v-0.1H645.4z M645.9,72.9v0.5h0.1v-0.3V73l0,0
	l0.1,0.3l0.1-0.3l0,0v0.1v0.3h0.1v-0.5h-0.1l-0.1,0.3v0.1v-0.1L645.9,72.9L645.9,72.9z"/>
<path class="st1" d="M650.7,54.8V53l0,0c0-2,1.6-3.5,3.5-3.5c0.3,0,0.5,0,0.8,0.1c0.4,0.1,0.7,0.4,0.7,0.8c0,0.5-0.3,0.8-0.8,0.8
	c-0.2,0-0.3,0-0.7,0c-1,0-1.9,0.8-1.9,1.9v1.6l0,0c0,0.1,0.1,0.3,0.3,0.3l0,0h1.2c0.5,0,0.8,0.4,0.8,0.8c0,0.5-0.4,0.8-0.8,0.8h-1.5
	v1.9l0,0c0,2-1.6,3.5-3.5,3.5c-0.3,0-0.5,0-0.8-0.1c-0.4-0.1-0.7-0.4-0.7-0.8c0-0.5,0.3-0.8,0.8-0.8c0.2,0,0.3,0,0.7,0
	c1,0,1.9-0.8,1.9-1.9v-1.6c0-0.1-0.1-0.3-0.3-0.3l0,0h-1.2c-0.5,0-0.8-0.4-0.8-0.8c0-0.5,0.4-0.8,0.8-0.8h1.5"/>
<path class="st6" d="M168,60.9c-0.5,0,0.1,0.2,0.7,0.3c0.2-0.1,0.3-0.3,0.4-0.4C168.7,60.9,168.4,60.9,168,60.9"/>
<path class="st6" d="M170.4,60.3c0.3-0.4,0.5-0.8,0.5-1.2c-0.1,0.3-0.2,0.6-0.4,0.8c-0.9,0.5-0.1-0.3,0-0.6
	C169.7,60.4,170.5,60,170.4,60.3"/>
<path class="st6" d="M171.3,57.9c0.1-0.8-0.2-0.6-0.2-0.2C171.2,57.7,171.3,58.3,171.3,57.9"/>
<path class="st6" d="M166.3,46.7c0.2,0,0.5,0.1,0.5,0.1C167,46.8,167.1,46.8,166.3,46.7"/>
<polyline class="st6" points="166.8,46.9 166.6,46.9 166.7,46.9 166.8,46.9 "/>
<path class="st6" d="M174.3,58.3c0,0.7-0.2,1.1-0.4,1.7l-0.4,0.2c-0.3,0.6,0,0.4-0.2,0.9c-0.5,0.4-1.5,1.4-1.9,1.5
	c-0.2,0,0.2-0.3,0.2-0.4c-0.7,0.5-0.5,0.7-1.6,1v-0.1c-2.5,1.2-6.1-1.2-6-4.4c0,0.2-0.1,0.2-0.1,0.2c-0.1-1.7,0.8-3.3,2.3-4
	s3.2-0.4,4.3,0.6c-0.6-0.8-1.7-1.6-3.1-1.5c-1.3,0-2.6,0.9-3,1.8c-0.7,0.4-0.8,1.7-1.1,1.9c-0.4,3,0.8,4.3,2.7,5.8
	c0.3,0.2,0.1,0.2,0.1,0.4c-0.7-0.3-1.3-0.8-1.7-1.3c0.3,0.4,0.5,0.8,0.9,1c-0.6-0.2-1.4-1.5-1.7-1.5c1.1,1.9,4.3,3.3,6,2.6
	c-0.8,0-1.8,0-2.7-0.3c-0.4-0.2-0.9-0.6-0.8-0.7c2.3,0.9,4.7,0.7,6.7-1c0.5-0.4,1.1-1.1,1.2-1.1c-0.2,0.4,0,0.2-0.1,0.5
	c0.5-0.8-0.2-0.3,0.5-1.4l0.3,0.4c-0.1-0.7,0.8-1.5,0.8-2.6c0.2-0.3,0.2,0.4,0,1.1c0.3-0.8,0.1-1,0.2-1.7c0.1,0.2,0.2,0.5,0.3,0.7
	c-0.2-0.8,0.2-1.4,0.3-1.8c-0.1,0-0.3,0.4-0.4-0.6c0-0.4,0.1-0.2,0.2-0.3c-0.1,0-0.3-0.4-0.4-1c0.1-0.1,0.3,0.4,0.4,0.4
	c-0.1-0.5-0.2-0.9-0.2-1.2c-0.4-0.8-0.1,0.1-0.4-0.3c-0.4-1.3,0.3-0.3,0.4-0.9c0.6,0.9,1,2.3,1.1,2.8c-0.1-0.7-0.3-1.4-0.6-2
	c0.2,0.1-0.3-1.4,0.2-0.4c-0.6-2.1-2.5-4.1-4.2-5c0.2,0.2,0.5,0.4,0.4,0.5c-0.9-0.5-0.7-0.6-0.8-0.8c-0.7-0.3-0.7,0-1.2,0
	c-1.3-0.7-1.6-0.6-2.8-1.1l0.1,0.3c-0.9-0.3-1,0.1-2,0c-0.1,0,0.3-0.2,0.6-0.2c-0.8,0.1-0.8-0.2-1.6,0c0.2-0.1,0.4-0.2,0.6-0.4
	c-0.7,0-1.7,0.4-1.4,0.1c-1.1,0.5-3.1,1.2-4.3,2.3v-0.2c-0.5,0.6-2.2,1.8-2.4,2.7h-0.1c-0.3,0.5-0.4,1-0.7,1.4
	c-0.4,0.6-0.5,0.2-0.5,0.3c-0.7,1.4-1,2.6-1.3,3.5c0.2,0.3,0,1.9,0.1,3.2c-0.3,6.3,4.4,12.3,9.6,13.7c0.8,0.3,1.9,0.3,2.8,0.3
	c-1.1-0.3-1.3-0.2-2.4-0.6c-0.8-0.4-1-0.8-1.5-1.3l0.2,0.4c-1.1-0.4-0.6-0.5-1.5-0.8l0.2-0.3c-0.4,0-0.9-0.6-1.1-0.9H161
	c-0.5-0.6-0.7-1-0.7-1.3l-0.1,0.2c-0.1-0.2-1.7-2.2-0.9-1.7c-0.2-0.1-0.4-0.2-0.6-0.6l0.2-0.2c-0.4-0.5-0.7-1.2-0.7-1.4
	c0.2,0.3,0.4,0.3,0.5,0.4c-1-2.5-1.1-0.1-1.8-2.5h0.2c-0.1-0.2-0.2-0.4-0.3-0.6l0.1-0.7c-0.7-0.8-0.2-3.5-0.1-5
	c0.1-0.6,0.6-1.2,1-2.3h-0.2c0.5-0.8,2.7-3.3,3.7-3.2c0.5-0.6-0.1,0-0.2-0.2c1.1-1.1,1.4-0.8,2.2-1c0.8-0.5-0.7,0.2-0.3-0.2
	c1.4-0.4,1-0.8,2.8-1c0.2,0.1-0.4,0.2-0.6,0.3c1.1-0.6,3.6-0.4,5.2,0.3c1.9,0.9,4,3.4,4,5.9h0.1c0,1,0.1,2.1-0.2,3.1L174.3,58.3"/>
<path class="st6" d="M163,61.5l-0.1,0.3c0.3,0.4,0.5,0.8,0.9,1.2C163.6,62.5,163.4,62.3,163,61.5"/>
<path class="st6" d="M163.7,61.5c-0.2-0.2-0.3-0.4-0.4-0.6c0.1,0.4,0.3,0.7,0.5,1L163.7,61.5"/>
<path class="st6" d="M176.3,58.8l-0.1,0.2c-0.1,0.9-0.4,1.7-0.8,2.5C175.8,60.6,176.1,59.7,176.3,58.8"/>
<path class="st6" d="M166.4,46.5c0.3-0.1,0.8-0.1,1.1-0.1c-0.4,0-0.8,0.1-1.3,0.1H166.4"/>
<path class="st6" d="M155.5,52.3c0.1,0.7-0.5,0.9,0.1,0.5C156,52,155.5,52.5,155.5,52.3"/>
<path class="st6" d="M154.8,55.3c0.1-0.4,0.2-0.7,0.2-1C154.6,54.9,154.9,55,154.8,55.3"/>
<path d="M153.5,84.6c0,0,0,2.3,0,2.9c0,0.5-0.1,1.5-1.1,1.5s-1.3-1.2-1.4-1.7c-0.1-0.6-0.1-1.1-0.1-1.3c0-0.7,0-2.6,1.6-2.6
	c0.5,0,0.7,0.1,1,0.3V84.6z M149.4,86.3c0,4,2.1,4,2.4,4c0.9,0,1.4-0.5,1.7-1.3v1.3c0.3,0,0.5,0,1,0c0.2,0,0.3,0,0.4,0
	c0.1,0,0.2,0,0.4,0c-0.2-0.5-0.4-1.5-0.4-3.7c0-2.1,0-5.8,0.2-6.9c-0.5,0.2-0.9,0.4-1.9,0.5c0.4,0.4,0.4,0.6,0.4,2.5
	c-0.3-0.1-0.6-0.2-1.2-0.2C149.8,82.5,149.4,84.7,149.4,86.3"/>
<path d="M157.1,85.6c0-1.2,0.3-2.2,1.3-2.2c1.1,0,1.2,1.2,1.2,2.2H157.1z M160.9,85.7c0-1.7-0.3-3.3-2.4-3.3c-2.9,0-2.9,3.2-2.9,3.9
	c0,2.9,1.3,4,3.4,4c1,0,1.4-0.1,1.7-0.2c0-0.5,0.1-0.8,0.1-1.3c-0.3,0.2-0.7,0.4-1.5,0.4c-2.2,0-2.2-2-2.2-2.7h3.8L160.9,85.7"/>
<path d="M165.5,86.3c0,1.3-0.2,3.1-1.9,3.1c-0.2,0-0.5,0-0.7-0.1c0-0.5,0-1.4,0-2.4c0-1.2,0.1-1.8,0.2-2.2c0.3-1,1-1,1.1-1
	C165.3,83.7,165.5,85.2,165.5,86.3z M161.4,87.9c0,1,0,1.6-0.2,2.1c0.6,0.2,1.3,0.4,2.2,0.4c0.6,0,2.1,0,3-1.8
	c0.4-0.8,0.6-1.9,0.6-2.8c0-0.5-0.1-1.6-0.5-2.3c-0.4-0.7-1-1-1.7-1c-1.4,0-1.8,1.1-2,1.7c0-0.7,0-3.2,0.1-4.5
	c-0.9,0.4-1.5,0.5-2.1,0.6c0.6,0.2,0.6,1.2,0.6,4.2L161.4,87.9"/>
<path d="M169.7,90.2c-0.3,0-0.5-0.1-0.9-0.1c-0.5,0-0.8,0-1.1,0.1c0.1-0.3,0.2-0.4,0.2-1.3c0.1-1.3,0.1-4.6,0-5.3
	c-0.1-0.5-0.2-0.6-0.4-0.8c1.2-0.1,1.5-0.2,2-0.5c-0.1,0.6-0.1,0.9-0.1,1.9C169.4,89.1,169.4,89.6,169.7,90.2"/>
<path d="M174.2,86.2c0,0.9,0,1.5-0.3,2c-0.3,0.6-0.8,0.8-1.2,0.8c-0.8,0-1-0.7-1-1.4c0-1.3,1.2-1.4,1.7-1.4H174.2z M170.3,88
	c0,0.9,0.3,1.8,1.1,2.2c0.4,0.2,0.7,0.2,0.8,0.2c1.3,0,1.7-1,2-1.6c0,0.6,0,1,0,1.5c0.3,0,0.5,0,0.9,0c0.2,0,0.5,0,0.7,0
	c-0.2-0.2-0.2-0.4-0.3-0.9c0-0.5,0-1.1,0-1.8v-2.9c0-1.1-0.3-2.1-2.4-2.1c-1.4,0-2.2,0.4-2.6,0.6c0.2,0.3,0.3,0.6,0.4,1.2
	c0.6-0.5,1.3-0.7,2-0.7c1.2,0,1.2,0.8,1.2,1.9c-0.3,0-0.5,0-0.9,0C171.5,85.4,170.3,86.1,170.3,88"/>
<path d="M182.3,88.8c0,0.5,0,1,0.2,1.4c-0.3,0-0.5-0.1-1.1-0.1c-0.3,0-0.5,0-0.8,0.1c0.1-0.2,0.1-0.3,0.1-0.5c0-0.3,0.1-1.4,0.1-1.8
	v-1.5c0-0.7,0-1.6,0-2c0-0.2-0.1-0.9-0.9-0.9c-0.8,0-1.1,0.6-1.2,1.1c-0.1,0.5-0.1,1-0.1,3.1c0,1.8,0,2,0.2,2.5
	c-0.2,0-0.5-0.1-1-0.1c-0.3,0-0.6,0-0.8,0.1c0.1-0.2,0.2-0.3,0.2-1.1c0-0.8,0.1-4.6,0-5.5c-0.1-0.6-0.2-0.7-0.4-0.8
	c1.1-0.1,1.5-0.2,1.9-0.4v1.5c0.2-0.4,0.5-1.4,1.9-1.4c1.8,0,1.8,1.3,1.8,2.1v4.2"/>
<polyline class="st6" points="169.8,80.4 168.6,81.5 167.5,80.4 168.6,79.2 169.8,80.4 "/>
<path class="st7" d="M489,73.9h-5.9c-0.6,0-1.2-0.1-1.8-0.2c-1.1-0.3-2-1.1-2.7-2.4c-0.6-1.1-0.9-2.4-0.9-3.9c0-1.4,0.3-2.7,0.8-3.8
	c0.6-1.2,1.4-2.1,2.5-2.5c0.8-0.3,1.7-0.5,2.6-0.5h5.4v2.6h-5.6c-0.9,0-1.6,0.5-2,1.5c-0.3,0.8-0.5,1.8-0.5,3c0,1,0.2,1.9,0.6,2.7
	c0.5,0.9,1.1,1.3,2,1.3h5.5V73.9L489,73.9z"/>
<path class="st7" d="M499.1,74h-4.7c-1.1,0-2.1-0.5-3-1.5c-0.8-1-1.2-2.1-1.2-3.4c0-1.4,0.5-2.6,1.4-3.6s1.9-1.5,3.1-1.5h4.4v2h-3.3
	c-0.4,0-0.8,0-1.1,0.1c-0.3,0.1-0.5,0.2-0.8,0.4c-0.4,0.4-0.7,1-0.7,1.6h5.7v2.1h-5.7c0,0.3,0,0.5,0.1,0.7s0.2,0.4,0.4,0.6
	c0.2,0.2,0.5,0.3,0.8,0.4s0.7,0.1,1.1,0.1h3.4v2H499.1z"/>
<path class="st7" d="M510.2,73.9h-2.7v-6.5c0-0.2,0-0.3-0.1-0.4s-0.2-0.3-0.3-0.4c-0.3-0.2-0.5-0.3-0.9-0.3h-2.6V74H501V64h5.1
	c0.9,0,1.6,0.1,2,0.2c0.6,0.2,1.1,0.5,1.5,1c0.4,0.6,0.7,1.3,0.7,2v6.7H510.2z"/>
<path class="st7" d="M518.3,66.1h-2.6v4.5c0,0.4,0.1,0.7,0.4,1c0.3,0.3,0.7,0.4,1.3,0.4h0.8v1.9h-2.5c-0.7,0-1.6-0.3-2.1-0.8
	c-0.3-0.3-0.5-0.7-0.6-1.1s-0.1-0.8-0.1-1.4V66h-1.7v-2h1.7v-3.5h2.8V64h2.6L518.3,66.1L518.3,66.1z"/>
<path class="st7" d="M534.2,67.2c0,2.6-0.7,4.5-2.2,5.6c-1.2,0.9-2.9,1.4-5.1,1.4c-2.5,0-4.3-0.5-5.5-1.6c-1.3-1.1-2-3-2-5.5
	c0-2.1,0.6-3.7,1.7-4.9c1.3-1.3,3.2-1.9,5.7-1.9c2.8,0,4.7,0.6,5.9,1.8C533.7,63.2,534.2,64.9,534.2,67.2L534.2,67.2z M530.7,67.1
	c0-1.3-0.3-2.4-0.9-3.1c-0.7-0.9-1.7-1.3-3.1-1.3c-1.4,0-2.4,0.5-3.1,1.4c-0.6,0.8-0.9,1.8-0.9,3c0,1.4,0.2,2.5,0.7,3.2
	c0.6,1,1.8,1.4,3.5,1.4c1.5,0,2.5-0.5,3.1-1.4C530.5,69.6,530.7,68.6,530.7,67.1L530.7,67.1z"/>
<path class="st7" d="M549.8,69.8c0,1.2-0.4,2.2-1.2,3s-1.8,1.2-3,1.2h-9.5v-2.4h7.8c0.5,0,1-0.1,1.3-0.4c0.4-0.3,0.6-0.7,0.6-1.1
	c0-1.1-0.8-1.7-2.4-1.7h-3.9c-1.1,0-2.1-0.4-3-1.1s-1.3-1.6-1.3-2.7c0-1.2,0.4-2.2,1.2-2.9c0.8-0.8,1.9-1.1,3.3-1.1h9.1v2.3h-8
	c-0.4,0-0.7,0.2-1.1,0.5c-0.4,0.3-0.5,0.6-0.5,1.1s0.2,0.8,0.5,1.2c0.4,0.3,0.8,0.5,1.3,0.5h4.3c1.4,0,2.4,0.4,3.2,1.1
	C549.4,67.7,549.8,68.6,549.8,69.8L549.8,69.8z"/>
<polygon class="st8" points="459.9,66.9 454.6,72 449.4,66.9 454.6,61.7 "/>
<polygon class="st1" points="459.9,66.9 459.5,66.5 454.6,71.3 450.1,66.9 454.6,62.4 459.5,67.2 459.9,66.9 459.5,66.5 459.9,66.9 
	460.2,66.5 454.6,61 448.7,66.9 454.6,72.7 460.6,66.9 460.2,66.5 "/>
<polygon class="st9" points="461,65.8 455.8,60.6 461,55.5 466.1,60.6 "/>
<polygon class="st1" points="461,65.8 461.3,65.5 456.5,60.6 461,56.2 465.4,60.6 460.6,65.5 461,65.8 461.3,65.5 461,65.8 
	461.3,66.2 466.8,60.6 461,54.7 455.1,60.6 461,66.5 461.3,66.2 "/>
<polygon class="st10" points="466.1,73.1 460.9,78.3 455.7,73.1 460.9,68 "/>
<polygon class="st1" points="466.1,73.1 465.8,72.8 460.9,77.6 456.4,73.1 460.9,68.7 465.8,73.5 466.1,73.1 465.8,72.8 466.1,73.1 
	466.5,72.8 460.9,67.3 454.9,73.1 460.9,79 466.8,73.1 466.5,72.8 "/>
<polygon class="st7" points="467.2,72.1 462.1,66.9 467.2,61.7 472.4,66.9 "/>
<polygon class="st1" points="467.2,72.1 467.6,71.7 462.8,66.9 467.2,62.4 471.7,66.9 466.9,71.7 467.2,72.1 467.6,71.7 467.2,72.1 
	467.6,72.4 473.1,66.9 467.2,61 461.4,66.9 467.2,72.8 467.6,72.4 "/>
<rect x="452.9" y="58.8" class="st11" width="7" height="7"/>
<rect x="462" y="67.9" class="st9" width="7" height="7"/>
<rect x="462" y="58.8" class="st8" width="7" height="7"/>
<rect x="452.6" y="58.5" class="st10" width="7.3" height="7.3"/>
<polygon class="st1" points="452.6,58.5 452.6,59 459.4,59 459.4,65.3 453.1,65.3 453.1,58.5 452.6,58.5 452.6,59 452.6,58.5 
	452.1,58.5 452.1,66.3 460.4,66.3 460.4,58 452.1,58 452.1,58.5 "/>
<polygon class="st1" points="462,67.9 462,68.4 468.7,68.4 468.7,74.7 462.5,74.7 462.5,67.9 462,67.9 462,68.4 462,67.9 
	461.5,67.9 461.5,75.7 469.7,75.7 469.7,67.4 461.5,67.4 461.5,67.9 "/>
<polygon class="st1" points="462,58.6 462,59.1 468.8,59.1 468.8,65.3 462.5,65.3 462.5,58.6 462,58.6 462,59.1 462,58.6 
	461.5,58.6 461.5,66.3 469.8,66.3 469.8,58.1 461.5,58.1 461.5,58.6 "/>
<rect x="452.6" y="67.9" class="st7" width="7.3" height="7.3"/>
<polygon class="st1" points="452.6,67.9 452.6,68.4 459.4,68.4 459.4,74.7 453.1,74.7 453.1,67.9 452.6,67.9 452.6,68.4 452.6,67.9 
	452.1,67.9 452.1,75.7 460.4,75.7 460.4,67.4 452.1,67.4 452.1,67.9 "/>
<polygon class="st1" points="459.9,66.9 459.5,66.5 454.6,71.3 450.1,66.9 454.6,62.4 459.5,67.2 459.9,66.9 459.5,66.5 459.9,66.9 
	460.2,66.5 454.6,61 448.7,66.9 454.6,72.7 460.6,66.9 460.2,66.5 "/>
<polygon class="st1" points="461,65.8 461.3,65.5 456.5,60.6 461,56.2 465.4,60.6 460.6,65.5 461,65.8 461.3,65.5 461,65.8 
	461.3,66.2 466.8,60.6 461,54.7 455.1,60.6 461,66.5 461.3,66.2 "/>
<polygon class="st1" points="466.1,73.1 465.8,72.8 460.9,77.6 456.4,73.1 460.9,68.7 465.8,73.5 466.1,73.1 465.8,72.8 466.1,73.1 
	466.5,72.8 460.9,67.3 454.9,73.1 460.9,79 466.8,73.1 466.5,72.8 "/>
<polygon class="st1" points="467.2,72.1 467.6,71.7 462.8,66.9 467.2,62.4 471.7,66.9 466.9,71.7 467.2,72.1 467.6,71.7 467.2,72.1 
	467.6,72.4 473.1,66.9 467.2,61 461.4,66.9 467.2,72.8 467.6,72.4 "/>
<g id="NodeSource-Logos">
	<g id="Dark-Logo-Mark">
		<g id="Logo-Mark">
			<g id="Fill-1">
				<path id="path-1_1_" class="st12" d="M102.837,46.157h0.932c0.258,0,0.424,0.138,0.424,0.352c0,0.214-0.166,0.352-0.424,0.352
					h-0.932V46.157z M102.518,48.855c0.176,0,0.319-0.143,0.319-0.319v-1.038h0.566l0.863,1.222
					c0.062,0.088,0.161,0.135,0.261,0.135c0.063,0,0.127-0.019,0.183-0.058c0.144-0.102,0.178-0.301,0.077-0.444l-0.646-0.915
					c0.41-0.135,0.691-0.487,0.691-0.928c0-0.564-0.457-0.99-1.062-0.99h-1.251c-0.176,0-0.319,0.143-0.319,0.319v2.698
					C102.199,48.712,102.342,48.855,102.518,48.855L102.518,48.855z M103.413,44.141c1.679,0,3.046,1.366,3.046,3.046
					c0,1.679-1.366,3.046-3.046,3.046c-1.679,0-3.046-1.366-3.046-3.046C100.367,45.507,101.734,44.141,103.413,44.141
					L103.413,44.141z M103.413,50.886c2.039,0,3.699-1.659,3.699-3.699c0-2.039-1.659-3.698-3.699-3.698s-3.699,1.659-3.699,3.698
					C99.714,49.227,101.373,50.886,103.413,50.886L103.413,50.886z M98.554,70.844c0.11,0.321,0.167,0.658,0.171,0.981l-0.006,0.24
					l-0.002,0.06l-0.002,0.029l-0.001,0.015l-0.009,0.08l-0.013,0.082c-0.019,0.113-0.021,0.19-0.08,0.399
					c-0.368,1.357-1.417,2.084-2.312,2.448c-0.921,0.373-1.803,0.469-2.596,0.478c-0.265-0.008-0.339-0.007-0.598-0.035
					c-0.226-0.02-0.409-0.057-0.595-0.09c-0.365-0.079-0.705-0.171-1.008-0.284c-0.612-0.22-1.098-0.487-1.489-0.718
					c-0.769-0.475-1.164-0.853-1.164-0.853l-0.042-0.04c-0.37-0.354-0.383-0.941-0.029-1.311c0.335-0.351,0.883-0.379,1.254-0.08
					c0,0,0.306,0.247,0.952,0.585c0.318,0.169,0.717,0.357,1.18,0.504c0.23,0.081,0.477,0.138,0.734,0.19
					c0.128,0.019,0.266,0.043,0.374,0.049c0.072,0.016,0.341,0.016,0.425,0.019c0.6-0.004,1.249-0.09,1.816-0.321
					c0.571-0.213,0.997-0.648,1.09-1.014c0.144-0.589,0.021-0.919-0.477-1.349c-0.5-0.405-1.309-0.712-2.105-0.899
					c-0.176-0.049-0.46-0.097-0.646-0.138c-0.243-0.048-0.486-0.096-0.732-0.157c-0.491-0.12-0.986-0.265-1.486-0.482
					c-0.496-0.218-1.013-0.51-1.464-0.973c-0.223-0.232-0.424-0.509-0.566-0.815c-0.151-0.308-0.233-0.607-0.284-0.984
					c-0.023-0.178-0.016-0.236-0.026-0.36l-0.002-0.08l0.001-0.028l0.003-0.058l0.006-0.115c0.006-0.077,0.008-0.153,0.018-0.229
					c0.046-0.307,0.121-0.612,0.248-0.893c0.248-0.568,0.65-1.029,1.081-1.356c0.881-0.651,1.797-0.871,2.627-0.959
					c0.765-0.083,1.572-0.025,2.206,0.127c0.651,0.144,1.181,0.375,1.596,0.584c0.42,0.21,0.706,0.412,0.919,0.559
					c0.185,0.136,0.283,0.208,0.283,0.208c0.414,0.304,0.503,0.885,0.199,1.299c-0.286,0.389-0.816,0.491-1.222,0.249l-0.02-0.012
					c0,0-0.095-0.057-0.274-0.164c-0.154-0.089-0.415-0.224-0.731-0.363c-0.32-0.142-0.717-0.275-1.177-0.371
					c-0.475-0.096-0.961-0.12-1.586-0.062c-0.55,0.05-1.158,0.232-1.566,0.544c-0.205,0.156-0.353,0.339-0.443,0.542
					c-0.049,0.101-0.071,0.213-0.093,0.329l-0.005,0.092l-0.003,0.046l-0.002,0.024l-0.001,0.003
					c0.006,0.093,0.008,0.225,0.019,0.259c0.031,0.15,0.107,0.392,0.285,0.555c0.176,0.182,0.458,0.363,0.799,0.51
					c0.342,0.148,0.735,0.267,1.145,0.367c0.205,0.051,0.418,0.093,0.631,0.136c0.268,0.057,0.445,0.084,0.72,0.154
					c1.004,0.25,2.002,0.571,2.947,1.308C97.888,69.675,98.327,70.198,98.554,70.844L98.554,70.844z M74.736,63.609v10.782
					c0,0.442-0.282,0.836-0.701,0.977c-0.109,0.037-0.221,0.055-0.331,0.055c-0.315,0-0.62-0.145-0.819-0.405l-6.403-8.365v7.737
					c0,0.57-0.462,1.032-1.032,1.032c-0.57,0-1.032-0.462-1.032-1.032V63.609c0-0.442,0.282-0.835,0.701-0.977
					c0.42-0.142,0.882-0.001,1.15,0.35l6.403,8.365v-7.738c0-0.57,0.462-1.032,1.032-1.032
					C74.274,62.577,74.736,63.039,74.736,63.609L74.736,63.609z M82.199,57.297v23.407c0,0.33-0.268,0.599-0.599,0.599
					c-0.33,0-0.598-0.268-0.598-0.599V57.297c0-0.33,0.268-0.599,0.598-0.599C81.931,56.698,82.199,56.966,82.199,57.297
					L82.199,57.297z M81.6,92.471c-12.941,0-23.471-10.529-23.471-23.471S68.659,45.529,81.6,45.529
					c12.942,0,23.471,10.529,23.471,23.471S94.542,92.471,81.6,92.471L81.6,92.471z M81.6,43.488
					c-14.067,0-25.512,11.444-25.512,25.512S67.533,94.512,81.6,94.512S107.112,83.067,107.112,69S95.667,43.488,81.6,43.488
					L81.6,43.488z"/>
			</g>
		</g>
	</g>
</g>
</svg>
