<?xml version="1.0" encoding="UTF-8"?>
<svg width="275px" height="64px" viewBox="0 0 275 64" version="1.1" xmlns="http://www.w3.org/2000/svg" xmlns:xlink="http://www.w3.org/1999/xlink">
    <!-- Generator: Sketch 47.1 (45422) - http://www.bohemiancoding.com/sketch -->
    <title>N|Solid/Dark/nsolid-logo-dark</title>
    <desc>Created with Sketch.</desc>
    <defs>
        <path d="M0,2.59268311 L3.18494169,2.59268311 L8.64612984,12.5280849 L10.4394754,16.2811445 L10.5466754,16.2811445 C10.412425,14.4723193 10.1449259,12.2309929 10.1449259,10.260485 L10.1449259,2.59268311 L13.1164695,2.59268311 L13.1164695,20.2504547 L9.93052595,20.2504547 L4.47033967,10.315053 L2.67699408,6.56199334 L2.56979409,6.56199334 C2.70304268,8.42437591 2.97054171,10.557577 2.97054171,12.5280849 L2.97054171,20.2504547 L0,20.2504547 L0,2.59268311 Z M17.4565662,27 L17.4565662,0 L19.5174108,0 L19.5174108,27 L17.4565662,27 Z M22.6506561,17.9823496 L24.4710521,15.8491485 C25.7293996,17.0365059 27.4155452,17.8469404 29.0215413,17.8469404 C31.0022364,17.8469404 32.0732344,16.9556645 32.0732344,15.5793405 C32.0732344,14.1211647 30.9491373,13.6623901 29.3701917,12.9873648 L26.9606967,11.9344062 C25.2475006,11.2058236 23.4271046,9.82848909 23.4271046,7.23651334 C23.4271046,4.42828699 25.8896987,2.26881246 29.3160908,2.26881246 C31.3508868,2.26881246 33.3315819,3.13280437 34.6961276,4.50912834 L33.1171819,6.50793069 C31.9930849,5.56309742 30.8148869,4.99518695 29.3160908,4.99518695 C27.6569957,4.99518695 26.5589472,5.77833751 26.5589472,7.07483064 C26.5589472,8.45115461 27.8974442,8.96449717 29.3431413,9.55868109 L31.7255858,10.5570717 C33.7864305,11.4483476 35.2581761,12.7711142 35.2581761,15.3368165 C35.2581761,18.1986002 32.902782,20.5733149 28.9684422,20.5733149 C26.6130481,20.5733149 24.3107531,19.6294921 22.6506561,17.9823496 Z M46.3975572,13.6353082 C46.3975572,10.9614806 45.2203611,9.20722332 43.2927651,9.20722332 C41.365169,9.20722332 40.2140215,10.9614806 40.2140215,13.6353082 C40.2140215,16.2808413 41.365169,18.0361091 43.2927651,18.0361091 C45.2203611,18.0361091 46.3975572,16.2808413 46.3975572,13.6353082 M37.0551284,13.6353082 C37.0551284,9.20722332 40.026672,6.66880497 43.2927651,6.66880497 C46.5849067,6.66880497 49.5564503,9.20722332 49.5564503,13.6353082 C49.5564503,18.0361091 46.5849067,20.573517 43.2927651,20.573517 C40.026672,20.573517 37.0551284,18.0361091 37.0551284,13.6353082 Z M52.3437502,16.8484487 L52.3437502,1.18846888 L55.4224937,1.18846888 L55.4224937,17.0101314 C55.4224937,17.765998 55.7701423,18.0368165 56.0917423,18.0368165 C56.2259927,18.0368165 56.3321908,18.0368165 56.5736413,17.9822486 L56.9753908,20.3044163 C56.6006917,20.466099 56.0646918,20.5742243 55.3423442,20.5742243 C53.1472491,20.5742243 52.3437502,19.1433325 52.3437502,16.8484487 Z M59.3316866,20.2497474 L62.4104301,20.2497474 L62.4104301,6.99378719 L59.3316866,6.99378719 L59.3316866,20.2497474 Z M58.984038,2.91635166 C58.984038,1.86339309 59.7865351,1.13481043 60.8845836,1.13481043 C61.9816302,1.13481043 62.7841273,1.86339309 62.7841273,2.91635166 C62.7841273,3.94303679 61.9816302,4.67161945 60.8845836,4.67161945 C59.7865351,4.67161945 58.984038,3.94303679 58.984038,2.91635166 L58.984038,2.91635166 Z M74.1892041,16.5237696 L74.1892041,10.3414274 C73.279507,9.53099293 72.3958585,9.23390097 71.51221,9.23390097 C69.8260644,9.23390097 68.4605169,10.8274861 68.4605169,13.6084285 C68.4605169,16.4702122 69.5315149,18.0092294 71.4320605,18.0092294 C72.4499594,18.0092294 73.3065575,17.5504547 74.1892041,16.5237696 M65.2755752,13.6357124 C65.2755752,9.31474232 67.9796198,6.66920918 70.8429615,6.66920918 C72.3427594,6.66920918 73.279507,7.23711965 74.2964041,8.12738501 L74.1892041,5.99418391 L74.1892041,1.18816572 L77.2679476,1.18816572 L77.2679476,20.2505558 L74.725204,20.2505558 L74.510804,18.8186534 L74.4036041,18.8186534 C73.439806,19.7907706 72.101309,20.5739212 70.6826624,20.5739212 C67.3905208,20.5739212 65.2755752,18.0092294 65.2755752,13.6357124 M89.3708262,10.8544669 L91.8604708,10.8544669 C94.2429154,10.8544669 95.554362,9.82778173 95.554362,7.83100041 C95.554362,5.80592462 94.2429154,5.1036154 91.8604708,5.1036154 L89.3708262,5.1036154 L89.3708262,10.8544669 Z M95.821861,20.2502526 L92.0478203,13.3383173 L89.3708262,13.3383173 L89.3708262,20.2502526 L86.2660341,20.2502526 L86.2660341,2.59248101 L92.1820708,2.59248101 C95.821861,2.59248101 98.6060551,3.88796362 98.6060551,7.83100041 C98.6060551,10.5311015 97.214459,12.1499495 95.1265639,12.8795426 L99.3023541,20.2502526 L95.821861,20.2502526 Z M101.447055,15.3090273 L101.447055,6.99348404 L104.525799,6.99348404 L104.525799,14.9048205 C104.525799,17.091579 105.140946,17.901003 106.559593,17.901003 C107.71074,17.901003 108.487189,17.361387 109.478037,16.0648939 L109.478037,6.99348404 L112.555779,6.99348404 L112.555779,20.2504547 L110.040086,20.2504547 L109.798635,18.3062203 L109.718486,18.3062203 C108.567338,19.6825443 107.282942,20.5738201 105.488595,20.5738201 C102.678352,20.5738201 101.447055,18.6568696 101.447055,15.3090273 Z M116.199677,6.99388824 L118.743422,6.99388824 L118.956821,8.77542947 L119.064021,8.77542947 C120.242219,7.6143456 121.580716,6.66951233 123.374061,6.66951233 C126.184304,6.66951233 127.415601,8.58646282 127.415601,11.9343052 L127.415601,20.2498484 L124.337859,20.2498484 L124.337859,12.3395224 C124.337859,10.152764 123.72171,9.34232943 122.276013,9.34232943 C121.125867,9.34232943 120.375467,9.90922939 119.278421,10.9894719 L119.278421,20.2498484 L116.199677,20.2498484 L116.199677,6.99388824 Z M131.380798,15.767903 L131.380798,9.45015158 L129.506301,9.45015158 L129.506301,7.12798383 L131.541097,6.99358509 L131.915796,3.37492421 L134.48559,3.37492421 L134.48559,6.99358509 L137.831833,6.99358509 L137.831833,9.45015158 L134.48559,9.45015158 L134.48559,15.767903 C134.48559,17.3342041 135.074689,18.0900707 136.333037,18.0900707 C136.787885,18.0900707 137.322883,17.9546615 137.697582,17.7929788 L138.233582,20.0878626 C137.510233,20.3313971 136.600536,20.5739212 135.556588,20.5739212 C132.504895,20.5739212 131.380798,18.6296867 131.380798,15.767903 Z M140.323782,20.2497474 L143.402525,20.2497474 L143.402525,6.99378719 L140.323782,6.99378719 L140.323782,20.2497474 Z M139.975131,2.91635166 C139.975131,1.86339309 140.77863,1.13481043 141.875677,1.13481043 C142.973725,1.13481043 143.776223,1.86339309 143.776223,2.91635166 C143.776223,3.94303679 142.973725,4.67161945 141.875677,4.67161945 C140.77863,4.67161945 139.975131,3.94303679 139.975131,2.91635166 Z M147.070268,6.99388824 L149.614013,6.99388824 L149.827411,8.80271342 L149.934611,8.80271342 C151.03266,7.6143456 152.317056,6.66951233 153.950102,6.66951233 C155.877699,6.66951233 156.974745,7.5607882 157.589893,9.04523747 C158.84824,7.69518695 160.159687,6.66951233 161.819784,6.66951233 C164.602976,6.66951233 165.888374,8.58646282 165.888374,11.9343052 L165.888374,20.2498484 L162.783582,20.2498484 L162.783582,12.3395224 C162.783582,10.152764 162.140382,9.34232943 160.775836,9.34232943 C159.946289,9.34232943 159.03559,9.88194543 158.018693,10.9894719 L158.018693,20.2498484 L154.939949,20.2498484 L154.939949,12.3395224 C154.939949,10.152764 154.297751,9.34232943 152.906155,9.34232943 C152.102656,9.34232943 151.165908,9.88194543 150.149011,10.9894719 L150.149011,20.2498484 L147.070268,20.2498484 L147.070268,6.99388824 Z M177.323006,12.3663011 C177.323006,10.3149519 176.439357,9.07201617 174.646012,9.07201617 C173.093115,9.07201617 171.754618,10.2341106 171.487119,12.3663011 L177.323006,12.3663011 Z M168.515575,13.6355103 C168.515575,9.31454021 171.487119,6.66900707 174.565862,6.66900707 C178.126505,6.66900707 180,9.26199334 180,12.960485 C180,13.554669 179.945899,14.1488529 179.86575,14.4722183 L171.514169,14.4722183 C171.781668,16.8206595 173.280464,18.17071 175.39541,18.17071 C176.519507,18.17071 177.483305,17.8200606 178.447103,17.1985928 L179.491051,19.1428272 C178.232703,19.9795352 176.653757,20.5737191 174.99366,20.5737191 C171.35387,20.5737191 168.515575,18.0090273 168.515575,13.6355103 L168.515575,13.6355103 Z" id="path-1"></path>
        <path d="M93.7082173,5.45904558 C93.7388001,5.30235043 93.7493459,5.15206553 93.7883654,4.98931624 C93.8657013,4.66061254 93.9651833,4.33725071 94.1096608,4.03632479 C94.3884214,3.43019943 94.7930286,2.89672365 95.2682926,2.4789886 C95.7428536,2.05947293 96.2859623,1.75641026 96.8325862,1.57478632 C97.3823739,1.38888889 97.9240765,1.33547009 98.4380084,1.33831909 C98.9326064,1.3482906 99.3969731,1.44444444 99.7833009,1.57514245 C100.173847,1.70192308 100.496197,1.86680912 100.749648,2.02065527 C101.004856,2.17307692 101.191868,2.31588319 101.317012,2.41631054 C101.43864,2.52029915 101.504024,2.57621083 101.504024,2.57621083 L101.533904,2.60185185 C101.771887,2.80413105 102.127281,2.78632479 102.344173,2.55519943 C102.569853,2.31481481 102.56001,1.93482906 102.322729,1.70655271 C102.322729,1.70655271 102.245394,1.63176638 102.100565,1.49216524 C101.951166,1.35719373 101.727243,1.16274929 101.414385,0.951923077 C100.792885,0.536680912 99.7833009,0.0516381766 98.4703489,0.00605413105 C97.8358433,-0.00676638177 97.1215411,0.0690883191 96.4181363,0.307336182 C95.7129738,0.541666667 95.0141388,0.931623932 94.4042401,1.47008547 C93.7939898,2.00676638 93.2733789,2.69195157 92.9144701,3.47293447 C92.7302702,3.86111111 92.5995023,4.27706553 92.5010748,4.70121083 C92.450455,4.91452991 92.4265512,5.15242165 92.3924531,5.377849 C92.3794466,5.48789174 92.3805012,5.57514245 92.3738222,5.67521368 L92.358355,6 C92.359058,6.8735755 92.5538038,7.74821937 92.9144701,8.52742165 C93.2733789,9.30840456 93.7939898,9.99323362 94.4042401,10.5302707 C95.0141388,11.0687322 95.7129738,11.4583333 96.4181363,11.6930199 C96.7717721,11.8069801 97.1166197,11.894943 97.4913472,11.9408832 C97.6846868,11.974359 97.8333826,11.9789886 97.9810238,11.985755 C98.0555474,11.9896724 98.1297196,11.9932336 98.2028371,11.997151 L98.2924764,12 L98.353642,11.9982194 L98.4756218,11.994302 C99.1217278,11.9697293 99.7077227,11.8372507 100.202672,11.6609687 C100.69727,11.480057 101.10012,11.2553419 101.414385,11.048433 C101.727595,10.8368946 101.948002,10.6460114 102.109353,10.5 C102.241878,10.3717949 102.312887,10.3034188 102.312887,10.3034188 C102.537512,10.085114 102.559658,9.72293447 102.355421,9.47934473 C102.143451,9.2261396 101.769075,9.19551282 101.51914,9.41025641 L101.513867,9.41488604 C101.513867,9.41488604 101.442155,9.47649573 101.30752,9.59223647 C101.19468,9.68126781 101.004505,9.82763533 100.749648,9.97970085 C100.246262,10.2845442 99.4472414,10.6381766 98.4327355,10.6623932 L98.3378233,10.6638177 L98.2928279,10.6645299 L98.2696272,10.6634615 C98.1965096,10.6595442 98.1223375,10.6559829 98.0474623,10.6520655 C97.8959543,10.6456553 97.739525,10.6388889 97.6277395,10.6125356 C97.3862407,10.582265 97.1064255,10.5135328 96.8325862,10.4255698 C96.2859623,10.2435897 95.7428536,9.94088319 95.2682926,9.52136752 C94.7930286,9.10327635 94.3884214,8.56980057 94.1096608,7.96403134 C93.829494,7.35861823 93.677986,6.68233618 93.6765799,6 L93.6902895,5.74287749 C93.6966169,5.64921652 93.6966169,5.54166667 93.7082173,5.45904558 L93.7082173,5.45904558 Z M87.2169262,5.30270655 C88.4648458,5.30270655 89.3362804,4.53276353 89.3362804,3.43019943 C89.3362804,2.32763533 88.4648458,1.55769231 87.2169262,1.55769231 L83.1975704,1.55769231 L83.1975704,5.30270655 L87.2169262,5.30270655 Z M90.5852545,10.7254274 C90.795116,11.0267094 90.7244591,11.4433761 90.426716,11.6559829 C90.3114153,11.738604 90.1785382,11.7781339 90.0474188,11.7781339 C89.8403696,11.7781339 89.6364841,11.6798433 89.5081769,11.4953704 L86.1240298,6.63817664 L83.1975704,6.63817664 L83.1975704,11.1103989 C83.1975704,11.4793447 82.902288,11.7781339 82.5384579,11.7781339 C82.1742763,11.7781339 81.8793455,11.4793447 81.8793455,11.1103989 L81.8793455,0.889957265 C81.8793455,0.521011396 82.1742763,0.222222222 82.5384579,0.222222222 L87.2169262,0.222222222 C89.2086762,0.222222222 90.6545053,1.57122507 90.6545053,3.43019943 C90.6545053,5.12998575 89.444199,6.39957265 87.7150394,6.60576923 L90.5852545,10.7254274 Z M112.340888,1.55769231 C112.704718,1.55769231 113,1.25854701 113,0.889957265 C113,0.521011396 112.704718,0.222222222 112.340888,0.222222222 L105.602825,0.222222222 C105.238995,0.222222222 104.943712,0.521011396 104.943712,0.889957265 L104.943712,11.1103989 C104.943712,11.4793447 105.238995,11.7781339 105.602825,11.7781339 L112.340888,11.7781339 C112.704718,11.7781339 113,11.4793447 113,11.1103989 C113,10.741453 112.704718,10.4426638 112.340888,10.4426638 L106.261937,10.4426638 L106.261937,6.64387464 L110.532986,6.64387464 C110.896816,6.64387464 111.192098,6.34508547 111.192098,5.9761396 C111.192098,5.60754986 110.896816,5.30840456 110.532986,5.30840456 L106.261937,5.30840456 L106.261937,1.55769231 L112.340888,1.55769231 Z M44.1288983,1.55769231 C44.4927284,1.55769231 44.7880108,1.25854701 44.7880108,0.889957265 C44.7880108,0.521011396 44.4927284,0.222222222 44.1288983,0.222222222 L37.3911869,0.222222222 C37.0273569,0.222222222 36.7320745,0.521011396 36.7320745,0.889957265 L36.7320745,11.1103989 C36.7320745,11.4793447 37.0273569,11.7781339 37.3911869,11.7781339 L44.1288983,11.7781339 C44.4927284,11.7781339 44.7880108,11.4793447 44.7880108,11.1103989 C44.7880108,10.741453 44.4927284,10.4426638 44.1288983,10.4426638 L38.0502994,10.4426638 L38.0502994,6.64387464 L42.3209967,6.64387464 C42.6851783,6.64387464 42.9801092,6.34508547 42.9801092,5.9761396 C42.9801092,5.60754986 42.6851783,5.30840456 42.3209967,5.30840456 L38.0502994,5.30840456 L38.0502994,1.55769231 L44.1288983,1.55769231 Z M33.1559938,6 C33.1559938,3.30128205 31.1526434,1.55769231 28.0521784,1.55769231 L26.371881,1.55769231 L26.371881,10.4426638 L28.0521784,10.4426638 C32.2708497,10.4426638 33.1559938,8.0267094 33.1559938,6 L33.1559938,6 Z M34.4742188,6 C34.4742188,9.67200855 32.1334028,11.7781339 28.0521784,11.7781339 L25.7127685,11.7781339 C25.3489384,11.7781339 25.053656,11.4793447 25.053656,11.1103989 L25.053656,0.889957265 C25.053656,0.521011396 25.3489384,0.222222222 25.7127685,0.222222222 L28.0521784,0.222222222 C32.4884447,0.222222222 34.4742188,3.12428775 34.4742188,6 L34.4742188,6 Z M54.9218211,7.86716524 C54.7513307,7.34294872 54.4149197,6.89494302 54.0359739,6.56410256 C53.654919,6.22970085 53.2334386,5.99109687 52.8087944,5.8005698 C52.3792288,5.60933048 51.9570453,5.46972934 51.5070912,5.35683761 C51.2705138,5.29202279 51.1003749,5.26353276 50.8680157,5.21047009 C50.6729184,5.16951567 50.4785242,5.12749288 50.2901059,5.07763533 C49.9129178,4.9789886 49.5494393,4.86004274 49.2281439,4.70833333 C48.906497,4.55769231 48.6330093,4.37108262 48.4452941,4.15990028 C48.3560063,4.05163818 48.2783189,3.94266382 48.2291052,3.81944444 C48.1696972,3.70441595 48.1440357,3.55448718 48.1250533,3.4537037 C48.0378747,2.7977208 48.2593365,2.32371795 48.6664043,1.96581197 C49.0724176,1.61396011 49.645406,1.43233618 50.1741021,1.37037037 C50.7340841,1.30982906 51.2300882,1.33155271 51.6663328,1.43126781 C52.1008197,1.52706553 52.4716803,1.66773504 52.7680173,1.81196581 C53.0625966,1.95441595 53.297768,2.09188034 53.4408393,2.18447293 C53.5111446,2.22685185 53.5800439,2.27599715 53.6204694,2.30306268 C53.6630042,2.33155271 53.6847988,2.34615385 53.6847988,2.34615385 L53.6907748,2.35007123 C53.9502014,2.5252849 54.3024311,2.46652422 54.4926071,2.21153846 C54.6898135,1.9465812 54.6377876,1.56944444 54.3762517,1.36930199 C54.3762517,1.36930199 54.2894246,1.30306268 54.1270193,1.17913105 C53.9452801,1.0477208 53.6953446,0.865384615 53.3329206,0.674145299 C52.9743634,0.48468661 52.5145666,0.275997151 51.9493117,0.146011396 C51.3893298,0.00819088319 50.7175623,-0.0388176638 50.0261094,0.0434472934 C49.3160256,0.132122507 48.517357,0.352207977 47.811843,0.949074074 C47.4655893,1.24537037 47.1604641,1.64707977 46.980834,2.11752137 C46.9344325,2.23361823 46.9049043,2.35648148 46.868697,2.4775641 C46.8437386,2.60007123 46.821944,2.72507123 46.8050707,2.8497151 L46.7938218,3.03703704 L46.789252,3.13105413 L46.7871428,3.17806268 L46.789252,3.25106838 L46.7966341,3.39957265 C46.7994463,3.44871795 46.7997978,3.49287749 46.8121012,3.57193732 C46.8514722,3.86396011 46.9091226,4.11253561 47.0247749,4.36289174 C47.1302328,4.61360399 47.2856076,4.84259259 47.4585587,5.04558405 C47.8143037,5.44586895 48.2445723,5.71652422 48.6699196,5.91809117 C49.098079,6.11965812 49.5315114,6.25783476 49.9631861,6.37108262 C50.1790235,6.4284188 50.3945093,6.4747151 50.6099952,6.51994302 C50.7864616,6.56160969 51.0304211,6.60576923 51.1980993,6.65527066 C51.9373598,6.84188034 52.6794326,7.14173789 53.1698123,7.57086895 C53.6640587,8.00997151 53.8341976,8.50641026 53.6833927,9.1460114 C53.6566767,9.23931624 53.6116813,9.38425926 53.542079,9.49821937 C53.5125507,9.55911681 53.4752889,9.61609687 53.4324027,9.66987179 C53.396547,9.72720798 53.3476847,9.77706553 53.3005802,9.82799145 C53.1107558,10.0306268 52.8653902,10.1948006 52.5971753,10.3180199 C52.058988,10.5687322 51.4487378,10.6570513 50.8880528,10.6631054 C50.8036864,10.6631054 50.5681635,10.662037 50.482391,10.6467236 C50.3727147,10.6381766 50.2479227,10.6175214 50.1248884,10.5954416 C49.881632,10.5445157 49.6492728,10.4843305 49.4348416,10.4031339 C49.0031669,10.2535613 48.6372276,10.0637464 48.345812,9.89458689 C48.0533418,9.72578348 47.8336377,9.5744302 47.6902148,9.46830484 C47.5457374,9.36217949 47.4764866,9.30235043 47.4764866,9.30235043 C47.2392061,9.0968661 46.8802974,9.11182336 46.6619993,9.34366097 C46.4356162,9.58333333 46.4440528,9.96367521 46.6809818,10.1926638 L46.6968005,10.2083333 C46.6968005,10.2083333 46.783276,10.2920228 46.9498997,10.4294872 C47.1172264,10.5676638 47.3636465,10.7631766 47.7000576,10.9786325 C48.0385777,11.1898148 48.4611128,11.4334046 48.9929726,11.6342593 C49.2566176,11.7378917 49.5515484,11.8219373 49.868977,11.8924501 C50.027867,11.923433 50.192733,11.9547721 50.383612,11.9718661 C50.5966372,11.9953704 50.6708093,11.9950142 50.9003562,11.9985755 C51.5939183,11.9882479 52.3669254,11.8903134 53.14626,11.5324074 C53.9122365,11.1848291 54.7270753,10.5 54.9773623,9.40099715 L55.0012661,9.29807692 L55.0118119,9.22400285 L55.033255,9.07514245 L55.0388795,9.03774929 L55.0455585,8.97720798 L55.0462615,8.95299145 L55.0494253,8.85576923 L55.0536436,8.66132479 C55.051886,8.53062678 55.0322005,8.3960114 55.0184909,8.26353276 C54.9907203,8.13141026 54.9618951,7.997151 54.9218211,7.86716524 L54.9218211,7.86716524 Z M78.7099812,0.222222222 C78.3461511,0.222222222 78.0508687,0.521011396 78.0508687,0.889957265 L78.0508687,7.13568376 C78.0508687,9.08155271 76.5428194,10.6645299 74.6892193,10.6645299 C72.8352678,10.6645299 71.3272184,9.08155271 71.3272184,7.13568376 L71.3272184,0.889957265 C71.3272184,0.521011396 71.031936,0.222222222 70.668106,0.222222222 C70.3042759,0.222222222 70.0089935,0.521011396 70.0089935,0.889957265 L70.0089935,7.13568376 C70.0089935,9.81801994 72.1086622,12 74.6892193,12 C77.269425,12 79.3690937,9.81801994 79.3690937,7.13568376 L79.3690937,0.889957265 C79.3690937,0.521011396 79.0738113,0.222222222 78.7099812,0.222222222 L78.7099812,0.222222222 Z M66.6009426,6 C66.6009426,3.42806268 64.673522,1.33547009 62.3045838,1.33547009 C59.9356457,1.33547009 58.0082251,3.42806268 58.0082251,6 C58.0082251,8.57229345 59.9356457,10.6645299 62.3045838,10.6645299 C64.673522,10.6645299 66.6009426,8.57229345 66.6009426,6 L66.6009426,6 Z M67.9191675,6 C67.9191675,9.30840456 65.4004791,12 62.3045838,12 C59.2086886,12 56.6900002,9.30840456 56.6900002,6 C56.6900002,2.69159544 59.2086886,0 62.3045838,0 C65.4004791,0 67.9191675,2.69159544 67.9191675,6 L67.9191675,6 Z M21.491988,6 C21.491988,3.42806268 19.5649189,1.33547009 17.1959808,1.33547009 C14.8270427,1.33547009 12.899622,3.42806268 12.899622,6 C12.899622,8.57229345 14.8270427,10.6645299 17.1959808,10.6645299 C19.5649189,10.6645299 21.491988,8.57229345 21.491988,6 L21.491988,6 Z M22.8102129,6 C22.8102129,9.30840456 20.2915245,12 17.1959808,12 C14.1000855,12 11.5813971,9.30840456 11.5813971,6 C11.5813971,2.69159544 14.1000855,0 17.1959808,0 C20.2915245,0 22.8102129,2.69159544 22.8102129,6 L22.8102129,6 Z M9.2866311,0.889957265 L9.2866311,11.1103989 C9.2866311,11.3945869 9.10875861,11.647792 8.84370752,11.7410969 C8.77269913,11.7660256 8.69993312,11.7781339 8.62751863,11.7781339 C8.42960912,11.7781339 8.23767557,11.6876781 8.11007139,11.5242165 L1.31822495,2.81267806 L1.31822495,11.1103989 C1.31822495,11.4793447 1.02294256,11.7781339 0.659112473,11.7781339 C0.295282388,11.7781339 0,11.4793447 0,11.1103989 L0,0.889957265 C0,0.605413105 0.177872486,0.352207977 0.442923582,0.259259259 C0.708326204,0.165954416 1.00185096,0.252492877 1.17655971,0.476139601 L7.96840615,9.18767806 L7.96840615,0.889957265 C7.96840615,0.521011396 8.26368854,0.222222222 8.62751863,0.222222222 C8.99134871,0.222222222 9.2866311,0.521011396 9.2866311,0.889957265 L9.2866311,0.889957265 Z" id="path-3"></path>
    </defs>
    <g id="Sub-Brands" stroke="none" stroke-width="1" fill="none" fill-rule="evenodd">
        <g id="N|Solid/Dark/nsolid-logo-dark">
            <g id="N|Solid-Line-Icon" fill="#5AC878">
                <path d="M28.4880252,45.0283198 C32.9636563,44.8646289 36.8678886,42.4731918 39.1144799,38.9330125 L54.4184077,47.7103325 L28.4880252,62.5810225 L28.4880252,45.0283198 Z M16.8864876,38.9330125 C19.1330788,42.4731918 23.0373112,44.8646289 27.5129422,45.0283198 L27.5129422,62.5810225 L1.58255973,47.7103325 L16.8864876,38.9330125 Z M9.83273708,22.1396806 L16.3901703,25.9006973 C15.4170375,27.7226063 14.85929,29.7963474 14.85929,31.9998789 C14.85929,34.2024419 15.4170375,36.2771516 16.3901703,38.0990605 L1.09501822,46.870569 L1.09501822,17.1291888 L9.83273708,22.1396806 Z M27.5129422,18.9714381 C23.0373112,19.135129 19.1330788,21.5255975 16.8864876,25.0667454 L1.58255973,16.290394 L27.5129422,1.41873532 L27.5129422,18.9714381 Z M54.4184077,16.290394 L39.1144799,25.0667454 C36.8678886,21.5255975 32.9636563,19.135129 28.4880252,18.9714381 L28.4880252,1.4197039 L49.3762535,13.3981983 L54.4184077,16.290394 Z M28.4880252,32.2788315 L38.7644251,26.3859585 C39.655651,28.0645169 40.1665945,29.9735985 40.1665945,31.9998789 C40.1665945,38.4990863 34.969402,43.8030594 28.4880252,44.0597345 L28.4880252,32.2788315 Z M28.0004837,19.9148402 C32.3201015,19.9148402 36.1121993,22.1697067 38.2710331,25.5500694 L28.0004837,31.4400366 L17.7299344,25.5500694 C19.8897432,22.1697067 23.680866,19.9148402 28.0004837,19.9148402 L28.0004837,19.9148402 Z M15.834373,31.9998789 C15.834373,29.9735985 16.3453165,28.0645169 17.2365424,26.3859585 L27.5129422,32.2788315 L27.5129422,44.0597345 C21.0315655,43.8030594 15.834373,38.4990863 15.834373,31.9998789 L15.834373,31.9998789 Z M54.9059492,46.870569 L39.6098221,38.0990605 C40.58393,36.2771516 41.1416775,34.2024419 41.1416775,31.9998789 C41.1416775,29.7963474 40.58393,27.7226063 39.6098221,25.9006973 L46.1682304,22.1396806 L54.9059492,17.1291888 L54.9059492,46.870569 Z M55.7562216,15.8012584 L28.2686316,0.0646530686 C28.1184688,-0.0215510229 27.9322279,-0.0215510229 27.7820651,0.0646530686 L0.268147828,15.8438762 C0.117009961,15.9300802 0.0243770753,16.0908654 0.0243770753,16.2632736 L0,47.7781334 C0,47.9515102 0.092632886,48.1113268 0.244745836,48.1975309 L27.7323359,63.9351048 C27.8074173,63.9777225 27.8912744,64 27.9761067,64 C28.0599638,64 28.1438209,63.9777225 28.2198774,63.9351048 L55.7337947,48.1558817 C55.8839575,48.0696776 55.9765904,47.909861 55.9775655,47.7364843 L55.9999924,16.2216244 C56.0009675,16.0482477 55.9083346,15.8884311 55.7562216,15.8012584 L55.7562216,15.8012584 Z" id="NSolid"></path>
            </g>
            <g id="Group" transform="translate(72.000000, 10.000000)">
                <g id="Group-2">
                    <g id="N|Solid-Text">
                        <mask id="mask-2" fill="white">
                            <use xlink:href="#path-1"></use>
                        </mask>
                        <use id="Fill-1" fill="#FFFFFF" fill-rule="evenodd" xlink:href="#path-1"></use>
                        <g id="Background-Fill-/-Base" mask="url(#mask-2)" fill-rule="evenodd" fill="#4C5859">
                            <g transform="translate(0.000000, -0.083100)" id="Rectangle">
                                <rect x="0" y="0" width="182" height="28"></rect>
                            </g>
                        </g>
                    </g>
                    <g id="Word-Mark" transform="translate(0.000000, 32.000000)">
                        <mask id="mask-4" fill="white">
                            <use xlink:href="#path-3"></use>
                        </mask>
                        <use id="Logo-Fill" fill="#FFFFFF" fill-rule="evenodd" xlink:href="#path-3"></use>
                        <g id="Background-Fill-/-Light-1" mask="url(#mask-4)" fill-rule="evenodd" fill="#89A19D">
                            <rect id="Rectangle" x="0" y="0" width="113" height="12"></rect>
                        </g>
                    </g>
                </g>
            </g>
        </g>
    </g>
</svg>